<svg width="465" height="60" viewBox="0 0 465 60" fill="none" xmlns="http://www.w3.org/2000/svg">
<path d="M17.2598 36.2715C17.3561 36.5124 17.7174 37.0423 18.3438 37.8613C18.9701 38.6322 19.6686 39.4993 20.4395 40.4629C21.2585 41.3783 22.0534 42.2695 22.8242 43.1367C23.5951 44.0039 24.125 44.6302 24.4141 45.0156C25.3294 46.3646 26.2689 47.6895 27.2324 48.9902C28.196 50.291 29.1113 51.64 29.9785 53.0371C30.2194 53.278 30.4121 53.5911 30.5566 53.9766C30.7012 54.3138 30.7734 54.6751 30.7734 55.0605C30.7734 55.4941 30.653 55.735 30.4121 55.7832C30.2194 55.7832 30.0026 55.8314 29.7617 55.9277C29.2799 56.265 28.8464 56.4577 28.4609 56.5059C28.0755 56.554 27.7624 56.5781 27.5215 56.5781C26.9915 56.5781 26.4134 56.554 25.7871 56.5059C25.1608 56.5059 24.6309 56.554 24.1973 56.6504C24.0527 56.6986 23.8841 56.7708 23.6914 56.8672C23.4987 57.0117 23.3542 57.084 23.2578 57.084C22.8724 57.084 22.5833 57.0117 22.3906 56.8672C22.2461 56.7708 22.0293 56.6745 21.7402 56.5781C21.3548 56.1445 20.9935 55.6868 20.6562 55.2051C20.3672 54.7233 20.054 54.2415 19.7168 53.7598C19.4277 53.4225 19.1146 53.1335 18.7773 52.8926C18.4401 52.6035 18.127 52.2663 17.8379 51.8809C17.0671 50.7728 16.2721 49.7129 15.4531 48.7012C14.6823 47.6895 13.8874 46.6777 13.0684 45.666C12.6829 45.1361 12.2493 44.6302 11.7676 44.1484C11.334 43.6667 10.9245 43.1849 10.5391 42.7031C10.1536 42.1732 9.79232 41.6191 9.45508 41.041C9.11784 40.4629 8.75651 39.9089 8.37109 39.3789C8.08203 38.8971 7.67253 38.319 7.14258 37.6445C6.61263 36.9219 6.05859 36.1992 5.48047 35.4766C4.90234 34.7539 4.30013 34.0794 3.67383 33.4531C3.0957 32.7786 2.58984 32.2728 2.15625 31.9355C2.15625 31.5983 2.0599 31.3574 1.86719 31.2129C1.67448 31.0684 1.45768 30.8997 1.2168 30.707C1.12044 30.4661 1 30.2493 0.855469 30.0566C0.710938 29.8158 0.638672 29.5508 0.638672 29.2617C0.638672 29.069 0.66276 28.9004 0.710938 28.7559C0.759115 28.6113 0.807292 28.4668 0.855469 28.3223C0.951823 28.1296 1 27.9609 1 27.8164C1.04818 27.6237 1.12044 27.431 1.2168 27.2383C1.45768 26.612 1.79492 26.0579 2.22852 25.5762C2.71029 25.0944 3.07161 24.5404 3.3125 23.9141C3.36068 23.7214 3.38477 23.5527 3.38477 23.4082C3.38477 23.2155 3.43294 23.0228 3.5293 22.8301C3.67383 22.541 3.89062 22.252 4.17969 21.9629C4.46875 21.6738 4.73372 21.3607 4.97461 21.0234C5.21549 20.5898 5.45638 20.1562 5.69727 19.7227C5.93815 19.2891 6.17904 18.8555 6.41992 18.4219C7.0944 17.3138 7.84115 16.2539 8.66016 15.2422C9.47917 14.1823 10.25 13.1465 10.9727 12.1348C11.6471 11.1712 12.2734 10.2318 12.8516 9.31641C13.4297 8.35286 14.056 7.38932 14.7305 6.42578C15.0677 5.94401 15.4531 5.41406 15.8867 4.83594C16.3203 4.20964 16.7539 3.60742 17.1875 3.0293C17.6693 2.45117 18.151 1.92122 18.6328 1.43945C19.1146 0.909505 19.5964 0.524089 20.0781 0.283203C20.8971 0.186849 21.4271 0.33138 21.668 0.716797C21.9089 1.05404 22.2461 1.22266 22.6797 1.22266C23.3542 1.36719 23.8118 1.58398 24.0527 1.87305C24.2936 2.16211 24.5345 2.42708 24.7754 2.66797C25.4017 2.66797 25.9316 2.78841 26.3652 3.0293C26.7988 3.27018 27.2324 3.63151 27.666 4.11328C27.4733 4.64323 27.2083 5.125 26.8711 5.55859C26.582 5.99219 26.3171 6.44987 26.0762 6.93164C25.6908 7.07617 25.4017 7.31706 25.209 7.6543C25.0645 7.99154 24.8236 8.2806 24.4863 8.52148C23.9564 9.34049 23.4264 10.1595 22.8965 10.9785C22.3665 11.7493 21.8366 12.4961 21.3066 13.2188C21.0658 13.5078 20.7767 13.7487 20.4395 13.9414C20.1504 14.0859 19.9095 14.3268 19.7168 14.6641C19.6204 14.8086 19.5482 14.9772 19.5 15.1699C19.4518 15.3145 19.3796 15.459 19.2832 15.6035C18.7051 16.5189 18.0547 17.4102 17.332 18.2773C16.6094 19.1445 15.9831 20.0599 15.4531 21.0234C15.2122 21.3607 15.0195 21.722 14.875 22.1074C14.7305 22.4447 14.5618 22.7819 14.3691 23.1191C14.1764 23.4082 13.8874 23.8177 13.502 24.3477C13.1647 24.8776 12.8034 25.4316 12.418 26.0098C12.0807 26.5397 11.7676 27.0697 11.4785 27.5996C11.2376 28.0814 11.1172 28.4909 11.1172 28.8281C11.1654 29.069 11.4785 29.5508 12.0566 30.2734C12.6348 30.9961 13.2611 31.7669 13.9355 32.5859C14.6582 33.4049 15.3327 34.1758 15.959 34.8984C16.6335 35.6211 17.0671 36.0788 17.2598 36.2715ZM48.9844 1.29492C49.2253 2.16211 49.4661 3.0293 49.707 3.89648C49.9479 4.71549 50.237 5.53451 50.5742 6.35352C51.2969 6.44987 51.7305 6.52214 51.875 6.57031C52.0677 6.61849 52.2845 6.69076 52.5254 6.78711C53.0553 8.03971 53.3685 9.38867 53.4648 10.834C53.6094 12.2311 53.8021 13.6042 54.043 14.9531C54.9583 16.1576 55.6087 17.4583 55.9941 18.8555C56.4277 20.2044 56.9095 21.5775 57.4395 22.9746C57.584 23.4564 57.6803 23.7695 57.7285 23.9141C57.7767 24.0104 57.8008 24.1068 57.8008 24.2031C58.0898 25.0221 58.3789 25.8652 58.668 26.7324C58.957 27.5996 59.2702 28.4427 59.6074 29.2617C59.752 29.6953 59.8965 30.1289 60.041 30.5625C60.2337 30.9479 60.4023 31.3333 60.5469 31.7188C60.6914 32.2005 60.8118 32.7064 60.9082 33.2363C61.0527 33.7181 61.1973 34.1999 61.3418 34.6816C61.679 35.6452 62.0404 36.6087 62.4258 37.5723C62.8112 38.5358 63.1966 39.4993 63.582 40.4629C63.7266 40.8001 63.9915 41.5469 64.377 42.7031C64.8105 43.8594 65.2441 45.0879 65.6777 46.3887C66.1113 47.6413 66.4967 48.8216 66.834 49.9297C67.2194 50.9896 67.4121 51.64 67.4121 51.8809C67.4121 52.2663 67.4362 52.6758 67.4844 53.1094C67.5807 53.4948 67.653 53.9043 67.7012 54.3379C67.5085 54.8197 67.2676 55.0846 66.9785 55.1328C66.6895 55.181 66.4245 55.1569 66.1836 55.0605C65.9427 55.1569 65.7018 55.2533 65.4609 55.3496C65.2682 55.446 65.0755 55.5423 64.8828 55.6387C64.7383 55.6868 64.6178 55.7591 64.5215 55.8555C64.4251 55.9518 64.3047 56 64.1602 56C63.582 56 63.1966 56.0482 63.0039 56.1445C62.8594 56.2891 62.6185 56.3613 62.2812 56.3613C61.8477 56.2168 61.5586 56.1927 61.4141 56.2891C61.3177 56.4336 61.2214 56.5299 61.125 56.5781C60.9323 56.6745 60.7155 56.7227 60.4746 56.7227C60.2337 56.7227 59.9928 56.7467 59.752 56.7949C59.6556 56.6022 59.5592 56.4095 59.4629 56.2168C59.4147 56.0241 59.3184 55.8073 59.1738 55.5664C58.6439 54.7956 58.2585 54.0488 58.0176 53.3262C57.8249 52.6035 57.6562 52.0254 57.5117 51.5918C57.2708 51.0618 57.054 50.5319 56.8613 50.002C56.7168 49.472 56.5241 48.9421 56.2832 48.4121C55.9941 48.5085 55.7292 48.6289 55.4883 48.7734C55.2474 48.8698 55.0547 49.0143 54.9102 49.207C54.332 49.207 54.043 49.2793 54.043 49.4238C54.043 49.5684 53.9948 49.7129 53.8984 49.8574C53.6094 49.9538 53.3685 50.0501 53.1758 50.1465C53.0312 50.2428 52.7663 50.2669 52.3809 50.2188C52.14 50.4596 51.8991 50.6764 51.6582 50.8691C51.4173 51.0137 51.1042 51.11 50.7188 51.1582C50.3333 51.5436 49.9238 51.8809 49.4902 52.1699C49.1048 52.4108 48.6471 52.459 48.1172 52.3145C47.4427 52.459 46.7682 52.6035 46.0938 52.748C45.4193 52.8444 44.7448 52.8926 44.0703 52.8926C43.2995 52.6517 42.8177 52.4349 42.625 52.2422C42.4323 52.0495 42.1432 51.9531 41.7578 51.9531C41.806 51.2786 41.6615 50.821 41.3242 50.5801C41.3242 50.4355 41.3242 50.2188 41.3242 49.9297C41.3724 49.5924 41.4447 49.3757 41.541 49.2793C42.1673 48.9902 42.5286 48.6771 42.625 48.3398C42.7214 48.0026 42.9863 47.7858 43.4199 47.6895C43.5163 47.4967 43.6126 47.3281 43.709 47.1836C43.8535 46.9909 43.974 46.7982 44.0703 46.6055C44.3112 46.5091 44.5039 46.4368 44.6484 46.3887C44.8411 46.3405 44.9857 46.196 45.082 45.9551C45.3229 45.9551 45.6842 45.8105 46.166 45.5215C46.6478 45.1842 46.9609 44.9193 47.1055 44.7266C47.4909 44.582 47.7318 44.4616 47.8281 44.3652C47.9245 44.2207 48.0449 44.1003 48.1895 44.0039C48.6712 44.0521 48.9844 44.0039 49.1289 43.8594C49.5143 44.0521 49.9479 44.1484 50.4297 44.1484C50.6224 44.1484 50.791 44.1484 50.9355 44.1484C51.0801 44.1003 51.2487 44.0762 51.4414 44.0762C51.8268 43.6908 52.3086 43.4499 52.8867 43.3535C53.513 43.209 54.0189 42.944 54.4043 42.5586C54.2598 42.1732 54.1393 41.7155 54.043 41.1855C53.9466 40.6074 53.778 40.1497 53.5371 39.8125C53.4408 39.1862 53.2721 38.584 53.0312 38.0059C52.8385 37.4277 52.6699 36.8737 52.5254 36.3438C51.9954 34.3203 51.3691 32.3451 50.6465 30.418C49.9238 28.4909 49.3216 26.5156 48.8398 24.4922C48.7435 24.2513 48.623 24.0104 48.4785 23.7695C48.3822 23.4805 48.2858 23.2155 48.1895 22.9746C47.9486 23.5527 47.8281 23.89 47.8281 23.9863C47.8281 24.0345 47.7799 24.1068 47.6836 24.2031C47.6354 24.444 47.5872 24.6608 47.5391 24.8535C47.4909 24.998 47.4186 25.1908 47.3223 25.4316C47.1777 25.8171 47.0332 26.2507 46.8887 26.7324C46.7923 27.166 46.696 27.5755 46.5996 27.9609C46.3587 28.7799 46.1419 29.6471 45.9492 30.5625C45.7565 31.4297 45.5397 32.2969 45.2988 33.1641C44.8171 34.6576 44.3112 36.151 43.7812 37.6445C43.2995 39.0898 42.8177 40.5592 42.3359 42.0527C42.2396 42.7272 42.1191 43.2572 41.9746 43.6426C41.8783 43.9798 41.7578 44.3411 41.6133 44.7266C41.5169 45.0638 41.4206 45.401 41.3242 45.7383C41.276 46.0755 41.252 46.3405 41.252 46.5332C40.5775 48.0749 39.9993 49.6406 39.5176 51.2305C39.084 52.8203 38.5299 54.362 37.8555 55.8555C37.6628 55.9518 37.4941 56.0723 37.3496 56.2168C37.2051 56.3613 37.0365 56.4336 36.8438 56.4336C36.4583 56.4336 36.2415 56.3372 36.1934 56.1445C36.1934 55.9518 36.097 55.8555 35.9043 55.8555C35.7116 55.8555 35.543 55.9036 35.3984 56C35.2539 56.0482 35.1094 56.1204 34.9648 56.2168C34.724 56.1204 34.4349 56.0482 34.0977 56C33.8086 56 33.5918 55.9036 33.4473 55.7109C33.11 55.9518 32.7728 56.0723 32.4355 56.0723C32.0501 56.0723 31.6647 55.9518 31.2793 55.7109C30.9902 55.8073 30.7012 55.8555 30.4121 55.8555C30.2676 55.8555 30.099 55.8314 29.9062 55.7832C29.7135 55.735 29.569 55.6628 29.4727 55.5664C29.4245 55.3737 29.4004 55.181 29.4004 54.9883C29.4004 54.7956 29.4004 54.5788 29.4004 54.3379C29.4004 53.8561 29.3522 53.4948 29.2559 53.2539C30.123 50.7969 30.9661 48.3158 31.7852 45.8105C32.6042 43.2572 33.4232 40.6797 34.2422 38.0781C34.6758 36.8737 35.0853 35.6934 35.4707 34.5371C35.9043 33.3809 36.3138 32.2005 36.6992 30.9961C36.8919 30.3216 37.0605 29.6953 37.2051 29.1172C37.3496 28.4909 37.5423 27.8887 37.7832 27.3105C38.1686 26.0579 38.554 24.8053 38.9395 23.5527C39.373 22.252 39.7585 20.9753 40.0957 19.7227C40.2884 19.5781 40.4089 19.4095 40.457 19.2168C40.5052 19.0241 40.5775 18.8073 40.6738 18.5664L40.6016 17.627C40.9388 17.1452 41.1556 16.7357 41.252 16.3984C41.3965 16.013 41.4928 15.6276 41.541 15.2422C41.7819 14.6641 41.9987 14.0378 42.1914 13.3633C42.3841 12.6888 42.5286 12.0625 42.625 11.4844C42.7214 10.7135 42.7695 9.84635 42.7695 8.88281C42.8177 7.87109 42.9622 7.02799 43.2031 6.35352C43.2995 6.16081 43.3717 6.04036 43.4199 5.99219C43.5163 5.89583 43.5645 5.72721 43.5645 5.48633C43.6608 5.38997 43.7572 5.29362 43.8535 5.19727C43.998 5.05273 44.0944 4.9082 44.1426 4.76367C44.3835 4.37826 44.4557 4.04102 44.3594 3.75195C44.3112 3.46289 44.2871 3.14974 44.2871 2.8125C44.7207 2.57161 44.9134 2.35482 44.8652 2.16211C44.8171 1.9694 44.793 1.77669 44.793 1.58398C44.793 1.3431 44.9375 1.1263 45.2266 0.933594C45.5638 0.692708 45.7806 0.451823 45.877 0.210938C46.166 0.259115 46.4551 0.307292 46.7441 0.355469C47.0332 0.355469 47.3223 0.33138 47.6113 0.283203C47.9486 0.909505 48.3581 1.22266 48.8398 1.22266L48.9844 1.29492ZM101.521 4.83594C100.992 5.79948 100.389 6.93164 99.7148 8.23242C99.0404 9.5332 98.5104 10.6654 98.125 11.6289C97.9805 11.9661 97.8359 12.3034 97.6914 12.6406C97.5951 12.9297 97.4746 13.2428 97.3301 13.5801C97.0892 14.3027 96.776 15.0013 96.3906 15.6758C96.0534 16.3021 95.7402 16.9766 95.4512 17.6992C95.0176 18.6628 94.5599 19.6504 94.0781 20.6621C93.6445 21.6257 93.2109 22.6374 92.7773 23.6973C92.2956 24.6608 91.9102 25.5039 91.6211 26.2266C91.3802 26.901 91.1152 27.5996 90.8262 28.3223C90.5371 29.0449 90.2721 29.7676 90.0312 30.4902C89.8385 31.1647 89.6699 31.791 89.5254 32.3691C89.0918 33.14 88.7305 33.7181 88.4414 34.1035C88.3451 34.9707 88.2487 35.8379 88.1523 36.7051C88.056 37.5723 88.0078 38.4635 88.0078 39.3789C88.0078 39.8125 88.0319 40.2461 88.0801 40.6797C88.1764 41.0651 88.2487 41.4746 88.2969 41.9082C88.3451 42.5345 88.3451 43.1608 88.2969 43.7871C88.2969 44.3652 88.321 44.9674 88.3691 45.5938C88.4173 46.7982 88.4655 48.0026 88.5137 49.207C88.61 50.3633 88.6823 51.5677 88.7305 52.8203C88.7786 53.6875 88.7305 54.4342 88.5859 55.0605C88.4896 55.6387 88.4655 56.2409 88.5137 56.8672C88.3691 56.9635 88.2005 57.0358 88.0078 57.084C87.8633 57.1322 87.7188 57.2044 87.5742 57.3008C87.0443 57.3008 86.6829 57.2767 86.4902 57.2285C86.3457 57.2285 86.2012 57.2767 86.0566 57.373C85.623 57.084 85.3822 56.9395 85.334 56.9395C85.2858 56.9876 85.2376 57.0117 85.1895 57.0117C84.6113 56.819 84.2982 56.6745 84.25 56.5781C84.2018 56.4818 84.1055 56.3854 83.9609 56.2891C83.431 56.2891 82.9974 56.3613 82.6602 56.5059C82.5156 56.4095 82.3952 56.3132 82.2988 56.2168C82.2025 56.1204 82.082 56.0241 81.9375 55.9277C81.5039 55.8796 81.1426 55.8314 80.8535 55.7832C80.5645 55.6868 80.3236 55.5905 80.1309 55.4941C79.9863 55.1087 79.8177 54.7715 79.625 54.4824C79.4805 54.1934 79.4082 53.8079 79.4082 53.3262C79.4082 52.9408 79.4564 52.5794 79.5527 52.2422C79.6491 51.9049 79.7214 51.5436 79.7695 51.1582C79.7695 50.9173 79.7454 50.7005 79.6973 50.5078C79.6973 50.3151 79.6973 50.0983 79.6973 49.8574C79.6973 49.6165 79.7454 49.3034 79.8418 48.918C79.6973 47.8099 79.625 46.6536 79.625 45.4492C79.6732 44.1966 79.6973 43.0163 79.6973 41.9082C79.6973 40.8001 79.6009 39.7643 79.4082 38.8008C79.4564 38.1745 79.4564 37.7409 79.4082 37.5C79.36 37.2109 79.3359 36.9219 79.3359 36.6328C79.3359 36.3919 79.36 36.151 79.4082 35.9102C79.4564 35.6211 79.4805 35.3561 79.4805 35.1152C79.4805 35.0671 79.4323 34.8262 79.3359 34.3926C79.2878 33.9108 79.2155 33.429 79.1191 32.9473C79.0228 32.4173 78.9264 31.9355 78.8301 31.502C78.7337 31.0202 78.6855 30.7311 78.6855 30.6348C78.2038 29.7676 77.8424 28.9486 77.6016 28.1777C77.3607 27.4069 77.0957 26.7565 76.8066 26.2266C76.6139 25.8411 76.4212 25.4557 76.2285 25.0703C76.0358 24.6849 75.8672 24.2754 75.7227 23.8418C75.6263 23.6009 75.5299 23.3359 75.4336 23.0469C75.3854 22.7578 75.3132 22.4928 75.2168 22.252C75.0241 21.8665 74.8314 21.457 74.6387 21.0234C74.4941 20.5417 74.3014 20.1562 74.0605 19.8672C73.8678 19.4336 73.6751 19.0482 73.4824 18.7109C73.3379 18.3255 73.2656 17.9642 73.2656 17.627C73.1211 17.0488 72.8802 16.543 72.543 16.1094C72.2539 15.6276 71.9889 15.1458 71.748 14.6641C71.6035 14.375 71.4831 14.11 71.3867 13.8691C71.3385 13.6283 71.2663 13.3874 71.1699 13.1465C71.0736 12.9538 70.929 12.7129 70.7363 12.4238C70.5918 12.1348 70.4232 11.918 70.2305 11.7734C70.1341 11.3398 69.9655 10.9544 69.7246 10.6172C69.4837 10.2799 69.3151 9.89453 69.2188 9.46094C68.9779 9.1237 68.7129 8.78646 68.4238 8.44922C68.2311 7.72656 67.9661 7.07617 67.6289 6.49805C67.2917 5.87174 66.9785 5.22135 66.6895 4.54688C66.8822 3.53516 67.4362 2.90885 68.3516 2.66797C68.8333 2.08984 69.1224 1.77669 69.2188 1.72852C69.3151 1.68034 69.5319 1.65625 69.8691 1.65625C70.1582 1.41536 70.4473 1.22266 70.7363 1.07812C71.0254 0.885417 71.3626 0.83724 71.748 0.933594C71.7962 0.740885 71.9167 0.572266 72.1094 0.427734C72.3503 0.283203 72.5671 0.210938 72.7598 0.210938C73.0488 0.210938 73.2897 0.355469 73.4824 0.644531C73.7233 0.933594 73.9642 1.15039 74.2051 1.29492C74.5905 1.9694 74.9759 2.61979 75.3613 3.24609C75.7949 3.8724 76.1562 4.52279 76.4453 5.19727C76.7826 5.87174 77.0716 6.54622 77.3125 7.2207C77.6016 7.89518 78.0111 8.54557 78.541 9.17188C78.7819 10.1354 79.1432 11.0508 79.625 11.918C80.1549 12.737 80.5885 13.6283 80.9258 14.5918C81.1667 15.1699 81.4316 15.748 81.7207 16.3262C82.0579 16.8561 82.347 17.4342 82.5879 18.0605C82.7324 18.3496 82.8529 18.6387 82.9492 18.9277C83.0456 19.2168 83.1419 19.5059 83.2383 19.7949C83.3346 20.0358 83.431 20.349 83.5273 20.7344C83.6237 21.1198 83.7441 21.4329 83.8887 21.6738C84.2259 21.3366 84.515 20.903 84.7559 20.373C85.0931 19.6986 85.4303 19.0723 85.7676 18.4941C86.153 17.8678 86.4902 17.2174 86.7793 16.543C87.1647 15.9167 87.4297 15.2663 87.5742 14.5918C87.7669 13.9173 87.9837 13.2428 88.2246 12.5684C88.321 12.3275 88.4173 12.0866 88.5137 11.8457C88.6582 11.6048 88.7786 11.3398 88.875 11.0508C89.0195 10.7617 89.14 10.4727 89.2363 10.1836C89.3327 9.89453 89.429 9.60547 89.5254 9.31641C89.8626 8.40104 90.224 7.50977 90.6094 6.64258C91.043 5.72721 91.4766 4.81185 91.9102 3.89648C91.9583 3.75195 92.0547 3.53516 92.1992 3.24609C92.3919 2.95703 92.5846 2.66797 92.7773 2.37891C93.0182 2.04167 93.235 1.7526 93.4277 1.51172C93.6204 1.27083 93.7891 1.10221 93.9336 1.00586C94.0299 0.909505 94.1745 0.861328 94.3672 0.861328C94.6081 0.813151 94.8008 0.764974 94.9453 0.716797C95.3789 0.716797 95.6921 0.83724 95.8848 1.07812C96.4629 1.31901 96.8965 1.48763 97.1855 1.58398C97.4746 1.68034 97.6914 1.89714 97.8359 2.23438C98.5586 2.71615 99.0885 3.00521 99.4258 3.10156C99.8112 3.14974 100.1 3.34245 100.293 3.67969C100.823 4.01693 101.136 4.25781 101.232 4.40234C101.329 4.54688 101.425 4.69141 101.521 4.83594ZM155.432 55.7832C155.191 56.0241 154.926 56.1686 154.637 56.2168C154.348 56.265 154.059 56.2891 153.77 56.2891C153.047 56.6263 152.276 56.7949 151.457 56.7949C150.927 56.5059 150.638 56.4095 150.59 56.5059C150.542 56.6022 150.445 56.6986 150.301 56.7949C149.578 57.1322 148.928 57.3008 148.35 57.3008C147.771 57.349 147.29 57.4935 146.904 57.7344C146.519 57.4453 146.302 57.0117 146.254 56.4336C146.254 55.9036 146.206 55.446 146.109 55.0605C145.868 54.7233 145.7 54.3138 145.604 53.832C145.507 53.3021 145.435 52.7721 145.387 52.2422C145.339 51.7122 145.266 51.2064 145.17 50.7246C145.122 50.1947 145.001 49.737 144.809 49.3516C144.76 49.1107 144.736 48.8939 144.736 48.7012C144.785 48.5085 144.76 48.2917 144.664 48.0508C144.712 47.2318 144.688 46.5814 144.592 46.0996C144.495 45.6178 144.399 45.112 144.303 44.582C144.255 44.293 144.23 43.9798 144.23 43.6426C144.23 43.2572 144.086 42.9681 143.797 42.7754C143.941 42.1009 143.965 41.5951 143.869 41.2578C143.773 40.9206 143.701 40.6074 143.652 40.3184C143.604 39.9329 143.58 39.5234 143.58 39.0898C143.58 38.6081 143.532 38.1745 143.436 37.7891C143.146 35.4766 142.833 33.1641 142.496 30.8516C142.159 28.5391 141.846 26.2266 141.557 23.9141C141.268 24.1549 141.051 24.5163 140.906 24.998C140.81 25.4798 140.714 25.9134 140.617 26.2988C140.328 27.166 140.063 28.0573 139.822 28.9727C139.581 29.888 139.34 30.7793 139.1 31.6465C139.003 32.0319 138.907 32.4896 138.811 33.0195C138.762 33.5013 138.666 33.9349 138.521 34.3203C138.04 35.7174 137.606 36.9219 137.221 37.9336C136.883 38.9453 136.546 39.9811 136.209 41.041C136.113 41.6191 136.016 42.1732 135.92 42.7031C135.824 43.2331 135.727 43.763 135.631 44.293C135.583 44.582 135.51 44.9915 135.414 45.5215C135.318 46.0514 135.221 46.4368 135.125 46.6777C135.029 46.9186 134.932 47.0872 134.836 47.1836C134.788 47.2799 134.788 47.4486 134.836 47.6895C134.354 48.4121 134.017 49.207 133.824 50.0742C133.68 50.9414 133.391 51.7845 132.957 52.6035C132.957 53.1816 132.74 53.6875 132.307 54.1211C132.066 54.1693 131.825 54.2174 131.584 54.2656C131.391 54.3138 131.174 54.4102 130.934 54.5547C130.693 54.4583 130.404 54.4102 130.066 54.4102C129.777 54.362 129.488 54.3379 129.199 54.3379C128.958 54.2897 128.742 54.2174 128.549 54.1211C128.356 53.9766 128.139 53.8802 127.898 53.832C127.658 53.543 127.393 53.3021 127.104 53.1094C126.814 52.8685 126.525 52.6276 126.236 52.3867C125.947 51.6641 125.682 51.1823 125.441 50.9414C125.297 50.4115 125.104 49.9297 124.863 49.4961C124.622 49.0143 124.454 48.4844 124.357 47.9062C124.213 47.3763 124.02 46.8945 123.779 46.4609C123.587 45.9792 123.37 45.4733 123.129 44.9434C123.033 44.6061 122.912 44.293 122.768 44.0039C122.671 43.6667 122.551 43.3294 122.406 42.9922C122.358 42.6068 122.214 42.125 121.973 41.5469C121.78 40.9688 121.635 40.4629 121.539 40.0293C121.539 39.9811 121.443 39.7402 121.25 39.3066C121.105 38.8249 120.937 38.319 120.744 37.7891C120.6 37.2591 120.431 36.7773 120.238 36.3438C120.094 35.9102 119.997 35.6693 119.949 35.6211C119.853 35.3802 119.757 35.1634 119.66 34.9707C119.612 34.7298 119.54 34.4648 119.443 34.1758C119.251 33.5495 119.01 32.9232 118.721 32.2969C118.432 31.6224 118.143 30.9961 117.854 30.418C117.613 29.9362 117.444 29.4785 117.348 29.0449C117.251 28.5632 117.131 28.1055 116.986 27.6719C116.89 27.431 116.794 27.2142 116.697 27.0215C116.649 26.8288 116.577 26.612 116.48 26.3711C116.384 26.082 116.288 25.793 116.191 25.5039C116.095 25.1667 115.999 24.8294 115.902 24.4922C115.661 24.5885 115.541 24.8053 115.541 25.1426C115.589 25.4316 115.589 25.6966 115.541 25.9375C115.445 26.4674 115.396 26.9974 115.396 27.5273C115.396 28.0091 115.372 28.515 115.324 29.0449C115.228 29.623 115.132 30.1771 115.035 30.707C114.939 31.237 114.867 31.7669 114.818 32.2969C114.818 33.5977 114.746 34.8984 114.602 36.1992C114.505 37.3555 114.385 38.5358 114.24 39.7402C114.096 40.8965 113.999 42.1009 113.951 43.3535C113.951 44.2689 113.855 45.1842 113.662 46.0996C113.469 46.9668 113.421 47.8822 113.518 48.8457C113.421 49.0384 113.373 49.1829 113.373 49.2793C113.373 49.3757 113.373 49.5202 113.373 49.7129C113.373 49.9538 113.349 50.2188 113.301 50.5078C113.301 50.7969 113.301 51.0618 113.301 51.3027C113.301 51.7363 113.349 52.0254 113.445 52.1699C113.301 52.6035 113.229 53.0853 113.229 53.6152C113.229 54.097 113.229 54.5788 113.229 55.0605C113.132 55.2533 113.06 55.446 113.012 55.6387C113.012 55.8314 112.939 56.0241 112.795 56.2168C112.843 57.0358 112.602 57.4453 112.072 57.4453C111.928 57.4453 111.759 57.3971 111.566 57.3008C111.422 57.2526 111.301 57.1562 111.205 57.0117C110.675 57.0599 110.362 56.9395 110.266 56.6504C110.217 56.3613 110.073 56.2409 109.832 56.2891C109.254 56.5299 108.917 56.6022 108.82 56.5059C108.772 56.4095 108.628 56.3854 108.387 56.4336C108.001 56.0482 107.736 55.8796 107.592 55.9277C107.495 55.9759 107.399 56 107.303 56C106.869 55.8555 106.628 55.8314 106.58 55.9277C106.532 55.9759 106.436 56 106.291 56C106.05 55.7591 105.713 55.6387 105.279 55.6387C104.894 55.6387 104.557 55.6146 104.268 55.5664C104.219 55.3737 104.171 55.2051 104.123 55.0605C104.123 54.8678 104.123 54.651 104.123 54.4102C104.123 54.1211 104.123 53.8561 104.123 53.6152C104.171 53.3262 104.195 53.0371 104.195 52.748C104.195 52.5072 104.171 52.2663 104.123 52.0254C104.123 51.7363 104.123 51.4232 104.123 51.0859C104.123 50.7487 104.147 50.4355 104.195 50.1465C104.243 49.8092 104.268 49.4479 104.268 49.0625C104.268 48.918 104.243 48.7975 104.195 48.7012C104.147 48.5566 104.123 48.388 104.123 48.1953C104.412 47.569 104.533 47.0872 104.484 46.75C104.484 46.3646 104.508 46.0033 104.557 45.666C104.653 44.847 104.725 44.0521 104.773 43.2812C104.87 42.4622 104.966 41.6432 105.062 40.8242C105.062 39.4753 105.087 38.3672 105.135 37.5C105.231 36.5846 105.352 35.6693 105.496 34.7539C105.592 34.3203 105.665 33.9108 105.713 33.5254C105.809 33.14 105.906 32.7305 106.002 32.2969C106.098 31.5742 106.146 30.8275 106.146 30.0566C106.195 29.2376 106.267 28.4427 106.363 27.6719C106.46 26.4674 106.58 25.2871 106.725 24.1309C106.869 22.9264 106.99 21.7461 107.086 20.5898C107.182 19.6745 107.279 18.7832 107.375 17.916C107.52 17.0007 107.592 16.1335 107.592 15.3145C107.592 14.8809 107.64 14.3268 107.736 13.6523C107.881 12.9779 107.977 12.3997 108.025 11.918C108.122 10.7617 108.194 9.62956 108.242 8.52148C108.339 7.41341 108.387 6.30534 108.387 5.19727V4.40234C108.387 4.30599 108.435 4.20964 108.531 4.11328C108.628 4.01693 108.676 3.84831 108.676 3.60742C108.676 3.17383 108.772 2.88477 108.965 2.74023C109.206 2.54753 109.398 2.25846 109.543 1.87305C109.784 1.87305 110.049 1.89714 110.338 1.94531C110.675 1.99349 110.916 2.13802 111.061 2.37891C111.398 2.28255 111.735 2.23438 112.072 2.23438C112.41 2.23438 112.699 2.11393 112.939 1.87305C113.229 1.87305 113.445 1.94531 113.59 2.08984C113.734 2.23438 113.927 2.35482 114.168 2.45117C114.361 2.35482 114.553 2.28255 114.746 2.23438C114.939 2.13802 115.132 2.04167 115.324 1.94531C115.469 2.04167 115.565 2.16211 115.613 2.30664C115.71 2.40299 115.83 2.47526 115.975 2.52344C116.697 2.33073 117.179 2.30664 117.42 2.45117C117.516 2.64388 117.564 2.83659 117.564 3.0293C117.613 3.22201 117.661 3.41471 117.709 3.60742C118.191 4.08919 118.504 4.64323 118.648 5.26953C118.793 5.84766 119.058 6.3776 119.443 6.85938C119.54 7.14844 119.636 7.4375 119.732 7.72656C119.877 8.01562 119.997 8.35286 120.094 8.73828L120.311 9.60547C120.503 10.0872 120.744 10.6654 121.033 11.3398C121.274 12.2552 121.491 13.1947 121.684 14.1582C121.876 15.1217 122.189 16.013 122.623 16.832C122.671 17.1211 122.743 17.4824 122.84 17.916C122.984 18.3014 123.105 18.6387 123.201 18.9277C123.538 19.7467 123.876 20.5658 124.213 21.3848C124.598 22.1556 124.936 22.9987 125.225 23.9141C125.514 24.8294 125.755 25.7689 125.947 26.7324C126.188 27.696 126.477 28.6354 126.814 29.5508C127.104 30.418 127.32 31.0443 127.465 31.4297C127.609 31.8151 127.802 32.2005 128.043 32.5859C128.043 32.7305 128.067 32.9714 128.115 33.3086C128.212 33.6458 128.332 34.0072 128.477 34.3926C128.621 34.7298 128.766 35.0671 128.91 35.4043C129.055 35.6934 129.199 35.862 129.344 35.9102C129.488 35.8138 129.561 35.6693 129.561 35.4766C129.609 35.2839 129.705 35.1152 129.85 34.9707C129.898 34.4408 129.97 33.7904 130.066 33.0195C130.211 32.2487 130.404 31.6224 130.645 31.1406C130.645 30.8997 130.693 30.4661 130.789 29.8398C130.934 29.1654 131.102 28.4668 131.295 27.7441C131.488 26.9733 131.656 26.2747 131.801 25.6484C131.993 25.0221 132.162 24.6367 132.307 24.4922C132.403 23.8659 132.475 23.4805 132.523 23.3359C132.62 23.1914 132.716 23.071 132.812 22.9746C132.861 22.5892 132.957 22.2279 133.102 21.8906C133.246 21.5534 133.342 21.1921 133.391 20.8066C133.487 19.9876 133.607 19.3132 133.752 18.7832C133.896 18.2533 134.089 17.6029 134.33 16.832C134.523 16.1576 134.691 15.4831 134.836 14.8086C135.029 14.0859 135.245 13.3874 135.486 12.7129C136.064 10.8822 136.57 9.26823 137.004 7.87109C137.486 6.42578 138.064 5.02865 138.738 3.67969C138.883 3.24609 139.003 2.98112 139.1 2.88477C139.196 2.78841 139.292 2.69206 139.389 2.5957C139.774 2.45117 140.16 2.37891 140.545 2.37891C140.979 2.37891 141.412 2.40299 141.846 2.45117C142.327 2.25846 142.689 2.04167 142.93 1.80078C143.122 2.04167 143.411 2.16211 143.797 2.16211C144.279 2.16211 144.616 2.01758 144.809 1.72852C145.001 1.82487 145.146 1.84896 145.242 1.80078C145.387 1.7526 145.579 1.77669 145.82 1.87305C145.917 1.77669 146.037 1.68034 146.182 1.58398C146.326 1.43945 146.471 1.36719 146.615 1.36719C147.001 1.84896 147.29 2.23438 147.482 2.52344C147.723 2.76432 147.892 3.05339 147.988 3.39062C148.133 3.82422 148.205 4.30599 148.205 4.83594C148.253 5.31771 148.398 5.77539 148.639 6.20898C148.59 6.83529 148.615 7.79883 148.711 9.09961C148.855 10.3522 149 11.7012 149.145 13.1465C149.337 14.5436 149.53 15.8444 149.723 17.0488C149.915 18.2533 150.084 19 150.229 19.2891C150.18 19.9154 150.204 20.4453 150.301 20.8789C150.397 21.3125 150.445 21.7461 150.445 22.1797C150.445 22.3242 150.469 22.6374 150.518 23.1191C150.566 23.5527 150.614 24.0345 150.662 24.5645C150.71 25.0462 150.758 25.528 150.807 26.0098C150.903 26.4434 150.975 26.7565 151.023 26.9492C151.023 27.8164 151.168 28.4909 151.457 28.9727C151.698 30.1771 151.891 31.3815 152.035 32.5859C152.228 33.7904 152.396 35.0189 152.541 36.2715C152.637 36.8978 152.686 37.5 152.686 38.0781C152.734 38.6562 152.806 39.2585 152.902 39.8848C152.951 40.1257 152.999 40.3665 153.047 40.6074C153.143 40.8483 153.215 41.0892 153.264 41.3301C153.36 41.8118 153.432 42.2695 153.48 42.7031C153.529 43.1367 153.601 43.5703 153.697 44.0039C153.745 44.2448 153.818 44.5098 153.914 44.7988C154.01 45.0397 154.01 45.3047 153.914 45.5938C154.01 45.931 154.035 46.2923 153.986 46.6777C153.986 47.0632 154.083 47.4004 154.275 47.6895C154.275 48.7012 154.348 49.5924 154.492 50.3633C154.54 50.9414 154.685 51.5195 154.926 52.0977C155.022 52.6758 155.094 53.278 155.143 53.9043C155.239 54.5306 155.335 55.1569 155.432 55.7832ZM176.605 1.29492C176.846 2.16211 177.087 3.0293 177.328 3.89648C177.569 4.71549 177.858 5.53451 178.195 6.35352C178.918 6.44987 179.352 6.52214 179.496 6.57031C179.689 6.61849 179.906 6.69076 180.146 6.78711C180.676 8.03971 180.99 9.38867 181.086 10.834C181.23 12.2311 181.423 13.6042 181.664 14.9531C182.579 16.1576 183.23 17.4583 183.615 18.8555C184.049 20.2044 184.531 21.5775 185.061 22.9746C185.205 23.4564 185.301 23.7695 185.35 23.9141C185.398 24.0104 185.422 24.1068 185.422 24.2031C185.711 25.0221 186 25.8652 186.289 26.7324C186.578 27.5996 186.891 28.4427 187.229 29.2617C187.373 29.6953 187.518 30.1289 187.662 30.5625C187.855 30.9479 188.023 31.3333 188.168 31.7188C188.312 32.2005 188.433 32.7064 188.529 33.2363C188.674 33.7181 188.818 34.1999 188.963 34.6816C189.3 35.6452 189.661 36.6087 190.047 37.5723C190.432 38.5358 190.818 39.4993 191.203 40.4629C191.348 40.8001 191.613 41.5469 191.998 42.7031C192.432 43.8594 192.865 45.0879 193.299 46.3887C193.732 47.6413 194.118 48.8216 194.455 49.9297C194.84 50.9896 195.033 51.64 195.033 51.8809C195.033 52.2663 195.057 52.6758 195.105 53.1094C195.202 53.4948 195.274 53.9043 195.322 54.3379C195.13 54.8197 194.889 55.0846 194.6 55.1328C194.311 55.181 194.046 55.1569 193.805 55.0605C193.564 55.1569 193.323 55.2533 193.082 55.3496C192.889 55.446 192.697 55.5423 192.504 55.6387C192.359 55.6868 192.239 55.7591 192.143 55.8555C192.046 55.9518 191.926 56 191.781 56C191.203 56 190.818 56.0482 190.625 56.1445C190.48 56.2891 190.24 56.3613 189.902 56.3613C189.469 56.2168 189.18 56.1927 189.035 56.2891C188.939 56.4336 188.842 56.5299 188.746 56.5781C188.553 56.6745 188.337 56.7227 188.096 56.7227C187.855 56.7227 187.614 56.7467 187.373 56.7949C187.277 56.6022 187.18 56.4095 187.084 56.2168C187.036 56.0241 186.939 55.8073 186.795 55.5664C186.265 54.7956 185.88 54.0488 185.639 53.3262C185.446 52.6035 185.277 52.0254 185.133 51.5918C184.892 51.0618 184.675 50.5319 184.482 50.002C184.338 49.472 184.145 48.9421 183.904 48.4121C183.615 48.5085 183.35 48.6289 183.109 48.7734C182.868 48.8698 182.676 49.0143 182.531 49.207C181.953 49.207 181.664 49.2793 181.664 49.4238C181.664 49.5684 181.616 49.7129 181.52 49.8574C181.23 49.9538 180.99 50.0501 180.797 50.1465C180.652 50.2428 180.387 50.2669 180.002 50.2188C179.761 50.4596 179.52 50.6764 179.279 50.8691C179.038 51.0137 178.725 51.11 178.34 51.1582C177.954 51.5436 177.545 51.8809 177.111 52.1699C176.726 52.4108 176.268 52.459 175.738 52.3145C175.064 52.459 174.389 52.6035 173.715 52.748C173.04 52.8444 172.366 52.8926 171.691 52.8926C170.921 52.6517 170.439 52.4349 170.246 52.2422C170.053 52.0495 169.764 51.9531 169.379 51.9531C169.427 51.2786 169.283 50.821 168.945 50.5801C168.945 50.4355 168.945 50.2188 168.945 49.9297C168.993 49.5924 169.066 49.3757 169.162 49.2793C169.788 48.9902 170.15 48.6771 170.246 48.3398C170.342 48.0026 170.607 47.7858 171.041 47.6895C171.137 47.4967 171.234 47.3281 171.33 47.1836C171.475 46.9909 171.595 46.7982 171.691 46.6055C171.932 46.5091 172.125 46.4368 172.27 46.3887C172.462 46.3405 172.607 46.196 172.703 45.9551C172.944 45.9551 173.305 45.8105 173.787 45.5215C174.269 45.1842 174.582 44.9193 174.727 44.7266C175.112 44.582 175.353 44.4616 175.449 44.3652C175.546 44.2207 175.666 44.1003 175.811 44.0039C176.292 44.0521 176.605 44.0039 176.75 43.8594C177.135 44.0521 177.569 44.1484 178.051 44.1484C178.243 44.1484 178.412 44.1484 178.557 44.1484C178.701 44.1003 178.87 44.0762 179.062 44.0762C179.448 43.6908 179.93 43.4499 180.508 43.3535C181.134 43.209 181.64 42.944 182.025 42.5586C181.881 42.1732 181.76 41.7155 181.664 41.1855C181.568 40.6074 181.399 40.1497 181.158 39.8125C181.062 39.1862 180.893 38.584 180.652 38.0059C180.46 37.4277 180.291 36.8737 180.146 36.3438C179.617 34.3203 178.99 32.3451 178.268 30.418C177.545 28.4909 176.943 26.5156 176.461 24.4922C176.365 24.2513 176.244 24.0104 176.1 23.7695C176.003 23.4805 175.907 23.2155 175.811 22.9746C175.57 23.5527 175.449 23.89 175.449 23.9863C175.449 24.0345 175.401 24.1068 175.305 24.2031C175.257 24.444 175.208 24.6608 175.16 24.8535C175.112 24.998 175.04 25.1908 174.943 25.4316C174.799 25.8171 174.654 26.2507 174.51 26.7324C174.413 27.166 174.317 27.5755 174.221 27.9609C173.98 28.7799 173.763 29.6471 173.57 30.5625C173.378 31.4297 173.161 32.2969 172.92 33.1641C172.438 34.6576 171.932 36.151 171.402 37.6445C170.921 39.0898 170.439 40.5592 169.957 42.0527C169.861 42.7272 169.74 43.2572 169.596 43.6426C169.499 43.9798 169.379 44.3411 169.234 44.7266C169.138 45.0638 169.042 45.401 168.945 45.7383C168.897 46.0755 168.873 46.3405 168.873 46.5332C168.199 48.0749 167.62 49.6406 167.139 51.2305C166.705 52.8203 166.151 54.362 165.477 55.8555C165.284 55.9518 165.115 56.0723 164.971 56.2168C164.826 56.3613 164.658 56.4336 164.465 56.4336C164.079 56.4336 163.863 56.3372 163.814 56.1445C163.814 55.9518 163.718 55.8555 163.525 55.8555C163.333 55.8555 163.164 55.9036 163.02 56C162.875 56.0482 162.73 56.1204 162.586 56.2168C162.345 56.1204 162.056 56.0482 161.719 56C161.43 56 161.213 55.9036 161.068 55.7109C160.731 55.9518 160.394 56.0723 160.057 56.0723C159.671 56.0723 159.286 55.9518 158.9 55.7109C158.611 55.8073 158.322 55.8555 158.033 55.8555C157.889 55.8555 157.72 55.8314 157.527 55.7832C157.335 55.735 157.19 55.6628 157.094 55.5664C157.046 55.3737 157.021 55.181 157.021 54.9883C157.021 54.7956 157.021 54.5788 157.021 54.3379C157.021 53.8561 156.973 53.4948 156.877 53.2539C157.744 50.7969 158.587 48.3158 159.406 45.8105C160.225 43.2572 161.044 40.6797 161.863 38.0781C162.297 36.8737 162.706 35.6934 163.092 34.5371C163.525 33.3809 163.935 32.2005 164.32 30.9961C164.513 30.3216 164.682 29.6953 164.826 29.1172C164.971 28.4909 165.163 27.8887 165.404 27.3105C165.79 26.0579 166.175 24.8053 166.561 23.5527C166.994 22.252 167.38 20.9753 167.717 19.7227C167.91 19.5781 168.03 19.4095 168.078 19.2168C168.126 19.0241 168.199 18.8073 168.295 18.5664L168.223 17.627C168.56 17.1452 168.777 16.7357 168.873 16.3984C169.018 16.013 169.114 15.6276 169.162 15.2422C169.403 14.6641 169.62 14.0378 169.812 13.3633C170.005 12.6888 170.15 12.0625 170.246 11.4844C170.342 10.7135 170.391 9.84635 170.391 8.88281C170.439 7.87109 170.583 7.02799 170.824 6.35352C170.921 6.16081 170.993 6.04036 171.041 5.99219C171.137 5.89583 171.186 5.72721 171.186 5.48633C171.282 5.38997 171.378 5.29362 171.475 5.19727C171.619 5.05273 171.715 4.9082 171.764 4.76367C172.005 4.37826 172.077 4.04102 171.98 3.75195C171.932 3.46289 171.908 3.14974 171.908 2.8125C172.342 2.57161 172.535 2.35482 172.486 2.16211C172.438 1.9694 172.414 1.77669 172.414 1.58398C172.414 1.3431 172.559 1.1263 172.848 0.933594C173.185 0.692708 173.402 0.451823 173.498 0.210938C173.787 0.259115 174.076 0.307292 174.365 0.355469C174.654 0.355469 174.943 0.33138 175.232 0.283203C175.57 0.909505 175.979 1.22266 176.461 1.22266L176.605 1.29492ZM223.072 2.08984C223.843 1.99349 224.421 2.06576 224.807 2.30664C225.24 2.49935 225.674 2.61979 226.107 2.66797C226.348 2.71615 226.589 2.74023 226.83 2.74023C227.119 2.69206 227.408 2.66797 227.697 2.66797C228.324 2.66797 228.805 2.74023 229.143 2.88477C229.528 3.0293 229.913 3.34245 230.299 3.82422C230.395 3.92057 230.516 4.0651 230.66 4.25781C230.853 4.40234 230.949 4.54688 230.949 4.69141C230.949 5.07682 230.853 5.41406 230.66 5.70312C230.467 5.99219 230.371 6.40169 230.371 6.93164C230.371 7.75065 230.467 8.56966 230.66 9.38867C230.853 10.1595 230.973 10.9544 231.021 11.7734C231.262 14.7604 231.383 17.7715 231.383 20.8066C231.431 23.7936 231.455 26.7565 231.455 29.6953C231.455 30.0807 231.431 30.4421 231.383 30.7793C231.383 31.0684 231.286 31.3333 231.094 31.5742V32.5137C231.046 33.7663 231.07 35.043 231.166 36.3438C231.262 37.5964 231.311 38.849 231.311 40.1016C231.311 41.2096 231.238 42.3177 231.094 43.4258C230.997 44.5339 230.949 45.666 230.949 46.8223C230.949 47.8822 231.021 48.918 231.166 49.9297C231.311 50.9414 231.383 51.9772 231.383 53.0371C231.142 53.4707 230.997 53.8079 230.949 54.0488C230.901 54.2897 230.805 54.5065 230.66 54.6992C230.516 54.7956 230.347 54.8197 230.154 54.7715C230.01 54.7233 229.889 54.7715 229.793 54.916C229.552 55.2051 229.383 55.5423 229.287 55.9277C229.191 56.3132 228.95 56.6263 228.564 56.8672C228.468 57.5417 228.203 58.0475 227.77 58.3848C227.384 58.7702 227.095 59.252 226.902 59.8301C226.324 59.8783 225.915 59.8542 225.674 59.7578C225.481 59.6615 225.264 59.5651 225.023 59.4688C224.975 58.6497 224.975 58.0475 225.023 57.6621C225.12 57.3249 225.168 56.9635 225.168 56.5781C225.168 56.0964 225.048 55.735 224.807 55.4941C224.566 55.2533 224.397 54.9401 224.301 54.5547C223.771 54.2174 223.41 54.0007 223.217 53.9043C223.024 53.7598 222.855 53.5911 222.711 53.3984C222.422 53.013 222.181 52.6035 221.988 52.1699C221.796 51.7363 221.579 51.3268 221.338 50.9414C220.663 49.8333 219.965 48.7012 219.242 47.5449C218.568 46.3887 217.821 45.2565 217.002 44.1484C216.857 43.9076 216.689 43.6908 216.496 43.498C216.303 43.3053 216.135 43.0885 215.99 42.8477C215.171 41.5469 214.4 40.222 213.678 38.873C212.955 37.5241 212.112 36.2474 211.148 35.043C210.763 34.5612 210.474 34.0312 210.281 33.4531C210.089 32.8268 209.799 32.2969 209.414 31.8633C209.366 32.1042 209.342 32.3691 209.342 32.6582C209.342 32.9473 209.342 33.2122 209.342 33.4531C209.342 35.0911 209.366 36.7292 209.414 38.3672C209.51 39.957 209.559 41.571 209.559 43.209C209.559 43.5462 209.51 43.8594 209.414 44.1484C209.366 44.3893 209.342 44.6784 209.342 45.0156C209.342 45.4974 209.366 45.9551 209.414 46.3887C209.462 46.8223 209.486 47.2559 209.486 47.6895C209.486 48.2194 209.462 48.7253 209.414 49.207C209.414 49.6888 209.39 50.1706 209.342 50.6523C209.245 51.2786 209.125 51.8809 208.98 52.459C208.836 52.9889 208.764 53.543 208.764 54.1211C208.764 54.4583 208.788 54.7715 208.836 55.0605C208.932 55.3496 208.98 55.6146 208.98 55.8555C208.643 56.3854 208.21 56.6504 207.68 56.6504C207.198 56.6504 206.788 56.8431 206.451 57.2285C206.162 57.1803 205.921 57.2044 205.729 57.3008C205.584 57.3971 205.439 57.4453 205.295 57.4453C205.102 57.4453 204.934 57.4212 204.789 57.373C204.693 57.3249 204.572 57.3008 204.428 57.3008C204.187 57.3008 203.946 57.4212 203.705 57.6621C203.464 57.903 203.223 58.0234 202.982 58.0234C202.838 58.0234 202.573 57.9271 202.188 57.7344C201.85 57.5417 201.465 57.3008 201.031 57.0117C200.646 56.7708 200.285 56.5059 199.947 56.2168C199.61 55.9759 199.441 55.7832 199.441 55.6387C199.393 55.3978 199.369 55.0605 199.369 54.627C199.369 54.0488 199.393 53.4948 199.441 52.9648C199.538 52.3867 199.634 51.8086 199.73 51.2305C199.875 49.5924 199.947 47.9785 199.947 46.3887C199.947 44.7507 199.947 43.1126 199.947 41.4746C199.947 40.8001 199.947 40.1257 199.947 39.4512C199.995 38.7767 200.02 38.1022 200.02 37.4277C200.02 35.8379 199.947 34.248 199.803 32.6582C199.706 31.0202 199.658 29.4062 199.658 27.8164C199.658 26.7083 199.706 25.6243 199.803 24.5645C199.899 23.4564 199.947 22.3724 199.947 21.3125C199.947 20.4935 199.923 19.6986 199.875 18.9277C199.827 18.1569 199.803 17.362 199.803 16.543C199.755 16.013 199.755 15.459 199.803 14.8809C199.851 14.2546 199.875 13.6764 199.875 13.1465C199.875 12.5202 199.779 11.9421 199.586 11.4121C199.441 10.834 199.369 10.304 199.369 9.82227C199.369 9.5332 199.417 9.26823 199.514 9.02734C199.658 8.73828 199.73 8.44922 199.73 8.16016C199.73 7.77474 199.658 7.38932 199.514 7.00391C199.417 6.61849 199.369 6.23307 199.369 5.84766C199.369 5.46224 199.417 5.10091 199.514 4.76367C199.61 4.42643 199.658 4.0651 199.658 3.67969C200.333 3.34245 200.935 3.17383 201.465 3.17383C201.995 3.17383 202.38 3.36654 202.621 3.75195C202.621 4.61914 202.669 5.29362 202.766 5.77539C202.862 6.20898 202.934 6.66667 202.982 7.14844C202.982 7.4375 202.958 7.77474 202.91 8.16016C202.91 8.54557 202.934 8.93099 202.982 9.31641C203.031 9.65365 203.127 9.94271 203.271 10.1836C203.464 10.4245 203.777 10.5449 204.211 10.5449C204.307 10.7858 204.428 11.0026 204.572 11.1953C204.717 11.388 204.813 11.6289 204.861 11.918C205.15 11.7253 205.319 11.4603 205.367 11.123C205.415 10.7858 205.415 10.4727 205.367 10.1836C205.608 10.2799 205.825 10.3281 206.018 10.3281C206.21 10.2799 206.403 10.304 206.596 10.4004C206.692 11.0749 206.812 11.6771 206.957 12.207C207.102 12.6888 207.15 13.2669 207.102 13.9414C208.065 14.6641 208.884 15.6999 209.559 17.0488C210.281 18.3496 210.956 19.5299 211.582 20.5898C211.919 21.1198 212.305 21.6257 212.738 22.1074C213.22 22.541 213.581 23.071 213.822 23.6973C214.208 23.9382 214.521 24.2513 214.762 24.6367C215.003 25.0221 215.219 25.4076 215.412 25.793C216.376 27.4792 217.436 29.1172 218.592 30.707C219.748 32.2969 220.952 33.8626 222.205 35.4043C222.253 35.0671 222.277 34.7539 222.277 34.4648C222.277 34.1276 222.277 33.7904 222.277 33.4531L222.205 26.9492C222.205 26.5638 222.181 26.2025 222.133 25.8652C222.133 25.528 222.109 25.1667 222.061 24.7812C221.964 23.5286 221.94 22.3001 221.988 21.0957C222.036 19.8913 222.036 18.6628 221.988 17.4102C221.892 16.1094 221.82 14.7845 221.771 13.4355C221.771 12.0866 221.723 10.7376 221.627 9.38867C221.579 8.56966 221.531 7.75065 221.482 6.93164C221.434 6.11263 221.41 5.29362 221.41 4.47461C221.41 3.46289 221.507 2.54753 221.699 1.72852C221.796 1.63216 221.892 1.5599 221.988 1.51172C222.133 1.41536 222.301 1.36719 222.494 1.36719C222.783 1.36719 222.976 1.60807 223.072 2.08984ZM288.184 47.6895C288.087 47.9785 288.039 48.2435 288.039 48.4844C288.039 48.7734 288.063 49.0625 288.111 49.3516C288.208 49.6406 288.256 49.9297 288.256 50.2188C288.16 51.0859 288.087 51.6159 288.039 51.8086C287.75 52.0495 287.148 52.3385 286.232 52.6758C285.365 52.9648 284.305 53.278 283.053 53.6152C281.848 53.9043 280.523 54.2174 279.078 54.5547C277.681 54.8438 276.332 55.1328 275.031 55.4219C273.73 55.7109 272.526 55.9518 271.418 56.1445C270.358 56.3854 269.563 56.554 269.033 56.6504C268.792 56.6986 268.551 56.7467 268.311 56.7949C268.118 56.8913 267.901 56.9876 267.66 57.084C267.419 57.1322 267.178 57.1322 266.938 57.084C266.697 57.084 266.456 57.1322 266.215 57.2285C266.07 57.2285 265.926 57.1562 265.781 57.0117C265.685 56.8672 265.589 56.7467 265.492 56.6504C265.492 56.3613 265.444 56.1445 265.348 56C265.251 55.8555 265.131 55.735 264.986 55.6387C264.89 55.5423 264.794 55.446 264.697 55.3496C264.601 55.2051 264.553 54.9883 264.553 54.6992C264.456 54.3138 264.312 54.0247 264.119 53.832C263.975 53.5911 263.902 53.3743 263.902 53.1816C263.71 52.5553 263.613 52.0013 263.613 51.5195C263.613 51.2786 263.637 51.0859 263.686 50.9414C263.734 50.7969 263.806 50.6523 263.902 50.5078C264.191 50.4115 264.408 50.291 264.553 50.1465C264.697 50.002 264.89 49.8815 265.131 49.7852C265.42 49.6406 265.829 49.5202 266.359 49.4238C266.889 49.2793 267.467 49.1348 268.094 48.9902C268.72 48.8457 269.322 48.7012 269.9 48.5566C270.479 48.4121 270.96 48.2676 271.346 48.123C271.49 48.0749 271.635 48.0508 271.779 48.0508C271.924 48.0508 272.044 48.0026 272.141 47.9062C272.044 47.1354 271.972 46.3646 271.924 45.5938C271.924 44.8229 271.876 44.0762 271.779 43.3535C271.779 43.0163 271.755 42.679 271.707 42.3418C271.659 42.0046 271.635 41.6914 271.635 41.4023L271.707 39.8848C271.707 38.054 271.635 36.2233 271.49 34.3926C271.346 32.5618 271.273 30.7311 271.273 28.9004V26.4434C271.273 26.0579 271.249 25.6966 271.201 25.3594C271.201 25.0221 271.201 24.6608 271.201 24.2754C271.201 23.36 271.201 22.4928 271.201 21.6738C271.249 20.8066 271.273 19.9154 271.273 19V12.3516C270.214 12.1107 269.226 12.1348 268.311 12.4238C267.395 12.6647 266.456 12.8333 265.492 12.9297C265.155 12.5924 264.962 12.2311 264.914 11.8457C264.529 11.3158 264.264 10.9785 264.119 10.834C263.975 10.6895 263.806 10.2799 263.613 9.60547C263.276 8.93099 262.987 8.52148 262.746 8.37695C262.553 8.18424 262.457 7.89518 262.457 7.50977C262.457 7.26888 262.505 7.10026 262.602 7.00391C262.746 6.90755 262.867 6.73893 262.963 6.49805C263.396 6.30534 263.637 6.1849 263.686 6.13672C263.782 6.04036 263.878 5.9681 263.975 5.91992C264.456 5.58268 265.01 5.3418 265.637 5.19727C266.263 5.05273 266.865 4.88411 267.443 4.69141C267.925 4.54688 268.383 4.37826 268.816 4.18555C269.25 3.99284 269.732 3.82422 270.262 3.67969C270.888 3.48698 271.514 3.29427 272.141 3.10156C272.767 2.90885 273.369 2.74023 273.947 2.5957C274.333 2.49935 274.694 2.47526 275.031 2.52344C275.417 2.52344 275.802 2.40299 276.188 2.16211C276.814 2.25846 277.464 2.25846 278.139 2.16211C278.861 2.01758 279.632 1.84896 280.451 1.65625C281.27 1.46354 282.065 1.29492 282.836 1.15039C283.607 1.00586 284.185 0.885417 284.57 0.789062C284.811 0.885417 284.98 1.00586 285.076 1.15039C285.173 1.29492 285.317 1.39128 285.51 1.43945C285.558 1.58398 285.606 1.77669 285.654 2.01758C285.702 2.21029 285.799 2.35482 285.943 2.45117C285.943 2.98112 286.064 3.36654 286.305 3.60742C286.257 4.08919 286.329 4.64323 286.521 5.26953C286.762 5.84766 286.883 6.40169 286.883 6.93164C286.642 7.6543 286.232 8.11198 285.654 8.30469C285.124 8.4974 284.522 8.66602 283.848 8.81055C283.221 8.95508 282.595 9.09961 281.969 9.24414C281.342 9.34049 280.837 9.46094 280.451 9.60547C280.451 10.2799 280.451 10.9785 280.451 11.7012C280.499 12.4238 280.523 13.1465 280.523 13.8691C280.523 14.5436 280.499 15.2181 280.451 15.8926C280.451 16.5671 280.451 17.2415 280.451 17.916C280.451 18.9277 280.427 19.9635 280.379 21.0234C280.379 22.0833 280.379 23.1432 280.379 24.2031C280.379 25.6966 280.403 27.1901 280.451 28.6836C280.499 30.1771 280.572 31.6706 280.668 33.1641C280.716 33.4049 280.74 33.7663 280.74 34.248C280.74 36.1751 280.764 38.0781 280.812 39.957C280.909 41.7878 281.053 43.6908 281.246 45.666C281.872 45.7142 282.354 45.6178 282.691 45.377C282.932 45.377 283.149 45.3288 283.342 45.2324C283.583 45.1361 283.799 45.0397 283.992 44.9434C284.281 44.8952 284.667 44.8229 285.148 44.7266C285.678 44.582 286.016 44.5098 286.16 44.5098C286.594 44.5579 286.859 44.5579 286.955 44.5098C287.1 44.7988 287.316 45.0156 287.605 45.1602C287.702 45.5938 287.774 46.0273 287.822 46.4609C287.919 46.8464 288.039 47.2559 288.184 47.6895ZM308.924 2.74023C309.02 2.93294 309.117 3.07747 309.213 3.17383C309.357 3.22201 309.454 3.36654 309.502 3.60742C309.839 3.84831 310.104 4.04102 310.297 4.18555C310.49 4.2819 310.61 4.47461 310.658 4.76367C311.092 5.10091 311.333 5.31771 311.381 5.41406C311.477 5.51042 311.549 5.63086 311.598 5.77539C311.839 5.9681 312.055 6.13672 312.248 6.28125C312.489 6.42578 312.658 6.64258 312.754 6.93164C313.139 7.26888 313.38 7.53385 313.477 7.72656C313.573 7.91927 313.645 8.13607 313.693 8.37695C313.501 8.71419 313.115 9.17188 312.537 9.75C311.959 10.3281 311.309 10.9544 310.586 11.6289C309.863 12.2552 309.165 12.8815 308.49 13.5078C307.816 14.0859 307.286 14.5436 306.9 14.8809C306.804 15.0736 306.684 15.2422 306.539 15.3867C306.395 15.5312 306.274 15.6999 306.178 15.8926C305.889 16.1335 305.624 16.3984 305.383 16.6875C305.142 16.9284 304.853 17.1211 304.516 17.2656C304.034 17.9401 303.359 18.6146 302.492 19.2891C301.625 19.9154 301.047 20.5417 300.758 21.168C300.806 21.3125 300.902 21.457 301.047 21.6016C301.24 21.7461 301.384 21.8665 301.48 21.9629C301.866 22.3483 302.324 22.7096 302.854 23.0469C303.383 23.3359 303.841 23.6732 304.227 24.0586C304.612 24.3958 304.997 24.7331 305.383 25.0703C305.768 25.3594 306.154 25.6725 306.539 26.0098C306.732 26.2025 306.973 26.4915 307.262 26.877C307.743 27.2624 308.201 27.6237 308.635 27.9609C309.117 28.25 309.574 28.5872 310.008 28.9727C310.923 29.7435 311.814 30.5384 312.682 31.3574C313.549 32.1283 314.464 32.8991 315.428 33.6699L316.006 34.3203C316.006 34.7057 316.102 35.1634 316.295 35.6934C316.536 36.1751 316.753 36.5846 316.945 36.9219C316.849 37.4036 316.849 37.7168 316.945 37.8613C317.09 37.9577 317.21 38.054 317.307 38.1504C317.258 39.0658 317.283 39.668 317.379 39.957C316.56 40.6797 315.789 41.3542 315.066 41.9805C314.392 42.5586 313.79 43.1367 313.26 43.7148C312.826 44.2448 312.368 44.7266 311.887 45.1602C311.453 45.5456 310.971 45.9792 310.441 46.4609C310.152 46.8464 309.911 47.1113 309.719 47.2559C309.382 47.5931 309.044 47.8581 308.707 48.0508C308.129 48.5807 307.551 49.0866 306.973 49.5684C306.443 50.0501 305.913 50.5319 305.383 51.0137C304.997 51.3509 304.636 51.6882 304.299 52.0254C303.962 52.3145 303.624 52.6517 303.287 53.0371C302.998 53.3262 302.661 53.6634 302.275 54.0488C301.938 54.4342 301.577 54.7474 301.191 54.9883C301.047 55.2773 300.854 55.5423 300.613 55.7832C300.372 55.9759 300.156 56.1927 299.963 56.4336C299.626 56.6263 299.312 56.819 299.023 57.0117C298.734 57.2044 298.397 57.3971 298.012 57.5898C297.626 57.3008 297.241 57.0358 296.855 56.7949C296.518 56.554 296.133 56.3854 295.699 56.2891C295.41 56.0482 295.193 55.8073 295.049 55.5664C294.904 55.3255 294.639 55.1569 294.254 55.0605C294.158 54.916 294.037 54.7715 293.893 54.627C293.796 54.4342 293.7 54.2415 293.604 54.0488C293.025 54.0007 292.568 53.6393 292.23 52.9648C292.327 52.6758 292.447 52.459 292.592 52.3145C292.785 52.1699 292.833 51.9049 292.736 51.5195C293.025 51.0378 293.363 50.6283 293.748 50.291C294.182 49.9056 294.591 49.5202 294.977 49.1348C295.41 48.7493 295.796 48.3639 296.133 47.9785C296.518 47.5449 296.928 47.1354 297.361 46.75C297.602 46.5091 297.843 46.2923 298.084 46.0996C298.325 45.8587 298.59 45.6178 298.879 45.377C299.409 44.847 299.939 44.3652 300.469 43.9316C301.047 43.4499 301.625 42.944 302.203 42.4141C302.974 41.6432 303.769 40.9206 304.588 40.2461C305.407 39.5234 306.154 38.7285 306.828 37.8613C306.78 37.6686 306.708 37.5482 306.611 37.5C306.515 37.4036 306.443 37.2832 306.395 37.1387C305.624 36.416 304.853 35.7174 304.082 35.043C303.359 34.3203 302.564 33.694 301.697 33.1641C301.408 32.875 301.215 32.6341 301.119 32.4414C300.252 31.8151 299.409 31.1165 298.59 30.3457C297.819 29.5749 296.952 28.9245 295.988 28.3945C295.796 28.1536 295.555 27.9609 295.266 27.8164C295.025 27.6237 294.784 27.4551 294.543 27.3105C294.398 27.0697 294.23 26.877 294.037 26.7324C293.893 26.5397 293.7 26.3952 293.459 26.2988C293.074 25.9616 292.809 25.6966 292.664 25.5039C292.568 25.263 292.375 25.1185 292.086 25.0703C291.99 24.8294 291.821 24.6367 291.58 24.4922C291.387 24.3477 291.171 24.179 290.93 23.9863C290.833 23.6973 290.689 23.4564 290.496 23.2637C290.448 22.8783 290.472 22.6133 290.568 22.4688C290.665 22.276 290.737 22.1315 290.785 22.0352C290.737 21.7461 290.617 21.5293 290.424 21.3848C290.183 21.2402 290.062 20.9993 290.062 20.6621C290.062 20.4694 290.135 20.349 290.279 20.3008C290.376 20.2044 290.448 20.084 290.496 19.9395L290.713 18.8555C291.098 18.5664 291.411 18.2292 291.652 17.8438C291.941 17.4102 292.303 17.0729 292.736 16.832C293.218 16.1094 293.82 15.5072 294.543 15.0254C294.784 14.64 295.073 14.3268 295.41 14.0859C295.796 13.8451 296.109 13.5319 296.35 13.1465C296.735 12.9056 297.048 12.6406 297.289 12.3516C297.578 12.0625 297.915 11.7975 298.301 11.5566C298.397 11.3639 298.493 11.2194 298.59 11.123C298.734 10.9785 298.831 10.834 298.879 10.6895C300.18 9.43685 301.312 8.35286 302.275 7.4375C303.287 6.52214 304.323 5.60677 305.383 4.69141C305.672 4.45052 305.961 4.18555 306.25 3.89648C306.539 3.60742 306.852 3.34245 307.189 3.10156C307.286 3.00521 307.406 2.95703 307.551 2.95703C307.695 2.95703 307.84 2.90885 307.984 2.8125C308.562 2.8125 308.876 2.78841 308.924 2.74023ZM348.525 43.6426C348.863 44.0762 349.055 44.4375 349.104 44.7266C349.2 44.9674 349.296 45.2324 349.393 45.5215C349.489 45.7624 349.561 46.0033 349.609 46.2441C349.706 46.485 349.754 46.6296 349.754 46.6777C349.754 47.015 349.682 47.304 349.537 47.5449C349.441 47.7376 349.272 48.0026 349.031 48.3398C347.104 49.0625 345.201 49.7852 343.322 50.5078C341.443 51.1823 339.516 51.8568 337.541 52.5312C337.011 52.6758 336.529 52.8444 336.096 53.0371C335.662 53.1816 335.18 53.3021 334.65 53.3984C334.554 53.4948 334.385 53.5911 334.145 53.6875C333.952 53.7357 333.711 53.8079 333.422 53.9043C333.133 54.0007 332.844 54.097 332.555 54.1934C332.314 54.2415 332.145 54.2656 332.049 54.2656C331.663 54.362 331.23 54.4102 330.748 54.4102C330.314 54.362 329.881 54.362 329.447 54.4102C329.206 54.4583 329.038 54.5788 328.941 54.7715C328.845 54.9642 328.725 55.181 328.58 55.4219C328.484 55.6146 328.315 55.8073 328.074 56C327.833 56.1445 327.496 56.2168 327.062 56.2168C326.629 56.2168 326.195 56.1927 325.762 56.1445C325.328 56.0964 324.87 55.9759 324.389 55.7832C324.292 55.6387 324.244 55.4701 324.244 55.2773C324.292 55.0365 324.268 54.8438 324.172 54.6992C323.738 54.651 323.401 54.6992 323.16 54.8438C322.919 54.9401 322.678 55.0124 322.438 55.0605C322.293 54.8678 322.173 54.651 322.076 54.4102C322.028 54.1211 321.908 53.8802 321.715 53.6875C321.667 53.4466 321.643 53.2057 321.643 52.9648C321.643 52.724 321.643 52.4831 321.643 52.2422C321.643 51.9049 321.643 51.5195 321.643 51.0859C321.691 50.6042 321.787 50.2428 321.932 50.002C322.076 47.2559 322.148 44.5098 322.148 41.7637C322.148 39.0176 322.148 36.2715 322.148 33.5254C322.148 33.2363 322.148 32.875 322.148 32.4414C322.148 31.9596 322.124 31.4779 322.076 30.9961C322.076 30.5143 322.052 30.0807 322.004 29.6953C322.004 29.2617 321.98 28.9486 321.932 28.7559C321.98 28.4186 322.004 28.1055 322.004 27.8164C322.004 27.4792 322.004 27.1419 322.004 26.8047C322.004 26.5156 322.004 26.2507 322.004 26.0098C322.004 25.7689 321.956 25.528 321.859 25.2871C321.908 25.0944 321.932 24.8294 321.932 24.4922C321.932 24.2513 321.908 24.0104 321.859 23.7695C321.811 23.5286 321.787 23.2878 321.787 23.0469C321.787 22.6615 321.787 22.3001 321.787 21.9629C321.835 21.5775 321.859 21.1921 321.859 20.8066C321.859 19.554 321.787 18.3255 321.643 17.1211C321.546 15.8685 321.498 14.6159 321.498 13.3633C321.498 11.7253 321.474 10.0872 321.426 8.44922C321.426 6.8112 321.402 5.17318 321.354 3.53516C321.546 3.05339 321.643 2.64388 321.643 2.30664C322.317 1.9694 322.847 1.84896 323.232 1.94531C323.618 2.04167 324.003 2.08984 324.389 2.08984C324.63 2.08984 324.846 2.06576 325.039 2.01758C325.232 1.9694 325.424 1.89714 325.617 1.80078C325.858 1.84896 326.051 1.92122 326.195 2.01758C326.388 2.06576 326.605 2.08984 326.846 2.08984C327.568 1.94531 327.954 1.92122 328.002 2.01758C328.098 2.11393 328.219 2.21029 328.363 2.30664C328.556 2.25846 328.701 2.1862 328.797 2.08984C328.941 1.94531 329.11 1.87305 329.303 1.87305C329.592 1.87305 329.809 2.06576 329.953 2.45117C330.098 2.78841 330.266 3.07747 330.459 3.31836C330.459 3.84831 330.555 4.33008 330.748 4.76367C330.844 6.73893 330.868 8.6901 330.82 10.6172C330.82 12.5443 330.893 14.4714 331.037 16.3984C331.085 17.2656 331.133 18.181 331.182 19.1445C331.278 20.0599 331.326 20.9512 331.326 21.8184C331.326 23.2637 331.326 24.7331 331.326 26.2266C331.374 27.6719 331.398 29.1413 331.398 30.6348C331.398 30.8757 331.398 31.0924 331.398 31.2852C331.447 31.4779 331.471 31.6947 331.471 31.9355C331.471 32.5137 331.447 33.0677 331.398 33.5977C331.35 34.1276 331.326 34.6576 331.326 35.1875V40.8242C331.326 41.306 331.302 41.8118 331.254 42.3418C331.254 42.8236 331.278 43.3053 331.326 43.7871L331.615 44.6543C332.145 44.4616 332.675 44.2689 333.205 44.0762C333.783 43.8353 334.385 43.6667 335.012 43.5703C335.397 43.474 335.758 43.3776 336.096 43.2812C336.433 43.1849 336.794 43.0885 337.18 42.9922C337.854 42.6068 338.384 42.3418 338.77 42.1973C339.155 42.0527 339.54 41.9082 339.926 41.7637C340.745 41.4746 341.54 41.1855 342.311 40.8965C343.081 40.5592 343.876 40.2461 344.695 39.957C345.081 40.0534 345.394 40.0052 345.635 39.8125C346.117 39.9089 346.55 39.957 346.936 39.957C347.465 40.487 347.779 40.8965 347.875 41.1855C348.02 41.4746 348.212 41.7396 348.453 41.9805C348.357 42.2214 348.357 42.3659 348.453 42.4141C348.598 42.4622 348.694 42.5827 348.742 42.7754C348.935 42.8717 348.959 43.0163 348.814 43.209C348.67 43.3535 348.574 43.498 348.525 43.6426ZM368.398 1.29492C368.639 2.16211 368.88 3.0293 369.121 3.89648C369.362 4.71549 369.651 5.53451 369.988 6.35352C370.711 6.44987 371.145 6.52214 371.289 6.57031C371.482 6.61849 371.699 6.69076 371.939 6.78711C372.469 8.03971 372.783 9.38867 372.879 10.834C373.023 12.2311 373.216 13.6042 373.457 14.9531C374.372 16.1576 375.023 17.4583 375.408 18.8555C375.842 20.2044 376.324 21.5775 376.854 22.9746C376.998 23.4564 377.094 23.7695 377.143 23.9141C377.191 24.0104 377.215 24.1068 377.215 24.2031C377.504 25.0221 377.793 25.8652 378.082 26.7324C378.371 27.5996 378.684 28.4427 379.021 29.2617C379.166 29.6953 379.311 30.1289 379.455 30.5625C379.648 30.9479 379.816 31.3333 379.961 31.7188C380.105 32.2005 380.226 32.7064 380.322 33.2363C380.467 33.7181 380.611 34.1999 380.756 34.6816C381.093 35.6452 381.454 36.6087 381.84 37.5723C382.225 38.5358 382.611 39.4993 382.996 40.4629C383.141 40.8001 383.406 41.5469 383.791 42.7031C384.225 43.8594 384.658 45.0879 385.092 46.3887C385.525 47.6413 385.911 48.8216 386.248 49.9297C386.633 50.9896 386.826 51.64 386.826 51.8809C386.826 52.2663 386.85 52.6758 386.898 53.1094C386.995 53.4948 387.067 53.9043 387.115 54.3379C386.923 54.8197 386.682 55.0846 386.393 55.1328C386.104 55.181 385.839 55.1569 385.598 55.0605C385.357 55.1569 385.116 55.2533 384.875 55.3496C384.682 55.446 384.49 55.5423 384.297 55.6387C384.152 55.6868 384.032 55.7591 383.936 55.8555C383.839 55.9518 383.719 56 383.574 56C382.996 56 382.611 56.0482 382.418 56.1445C382.273 56.2891 382.033 56.3613 381.695 56.3613C381.262 56.2168 380.973 56.1927 380.828 56.2891C380.732 56.4336 380.635 56.5299 380.539 56.5781C380.346 56.6745 380.13 56.7227 379.889 56.7227C379.648 56.7227 379.407 56.7467 379.166 56.7949C379.07 56.6022 378.973 56.4095 378.877 56.2168C378.829 56.0241 378.732 55.8073 378.588 55.5664C378.058 54.7956 377.673 54.0488 377.432 53.3262C377.239 52.6035 377.07 52.0254 376.926 51.5918C376.685 51.0618 376.468 50.5319 376.275 50.002C376.131 49.472 375.938 48.9421 375.697 48.4121C375.408 48.5085 375.143 48.6289 374.902 48.7734C374.661 48.8698 374.469 49.0143 374.324 49.207C373.746 49.207 373.457 49.2793 373.457 49.4238C373.457 49.5684 373.409 49.7129 373.312 49.8574C373.023 49.9538 372.783 50.0501 372.59 50.1465C372.445 50.2428 372.18 50.2669 371.795 50.2188C371.554 50.4596 371.313 50.6764 371.072 50.8691C370.831 51.0137 370.518 51.11 370.133 51.1582C369.747 51.5436 369.338 51.8809 368.904 52.1699C368.519 52.4108 368.061 52.459 367.531 52.3145C366.857 52.459 366.182 52.6035 365.508 52.748C364.833 52.8444 364.159 52.8926 363.484 52.8926C362.714 52.6517 362.232 52.4349 362.039 52.2422C361.846 52.0495 361.557 51.9531 361.172 51.9531C361.22 51.2786 361.076 50.821 360.738 50.5801C360.738 50.4355 360.738 50.2188 360.738 49.9297C360.786 49.5924 360.859 49.3757 360.955 49.2793C361.581 48.9902 361.943 48.6771 362.039 48.3398C362.135 48.0026 362.4 47.7858 362.834 47.6895C362.93 47.4967 363.027 47.3281 363.123 47.1836C363.268 46.9909 363.388 46.7982 363.484 46.6055C363.725 46.5091 363.918 46.4368 364.062 46.3887C364.255 46.3405 364.4 46.196 364.496 45.9551C364.737 45.9551 365.098 45.8105 365.58 45.5215C366.062 45.1842 366.375 44.9193 366.52 44.7266C366.905 44.582 367.146 44.4616 367.242 44.3652C367.339 44.2207 367.459 44.1003 367.604 44.0039C368.085 44.0521 368.398 44.0039 368.543 43.8594C368.928 44.0521 369.362 44.1484 369.844 44.1484C370.036 44.1484 370.205 44.1484 370.35 44.1484C370.494 44.1003 370.663 44.0762 370.855 44.0762C371.241 43.6908 371.723 43.4499 372.301 43.3535C372.927 43.209 373.433 42.944 373.818 42.5586C373.674 42.1732 373.553 41.7155 373.457 41.1855C373.361 40.6074 373.192 40.1497 372.951 39.8125C372.855 39.1862 372.686 38.584 372.445 38.0059C372.253 37.4277 372.084 36.8737 371.939 36.3438C371.41 34.3203 370.783 32.3451 370.061 30.418C369.338 28.4909 368.736 26.5156 368.254 24.4922C368.158 24.2513 368.037 24.0104 367.893 23.7695C367.796 23.4805 367.7 23.2155 367.604 22.9746C367.363 23.5527 367.242 23.89 367.242 23.9863C367.242 24.0345 367.194 24.1068 367.098 24.2031C367.049 24.444 367.001 24.6608 366.953 24.8535C366.905 24.998 366.833 25.1908 366.736 25.4316C366.592 25.8171 366.447 26.2507 366.303 26.7324C366.206 27.166 366.11 27.5755 366.014 27.9609C365.773 28.7799 365.556 29.6471 365.363 30.5625C365.171 31.4297 364.954 32.2969 364.713 33.1641C364.231 34.6576 363.725 36.151 363.195 37.6445C362.714 39.0898 362.232 40.5592 361.75 42.0527C361.654 42.7272 361.533 43.2572 361.389 43.6426C361.292 43.9798 361.172 44.3411 361.027 44.7266C360.931 45.0638 360.835 45.401 360.738 45.7383C360.69 46.0755 360.666 46.3405 360.666 46.5332C359.992 48.0749 359.413 49.6406 358.932 51.2305C358.498 52.8203 357.944 54.362 357.27 55.8555C357.077 55.9518 356.908 56.0723 356.764 56.2168C356.619 56.3613 356.451 56.4336 356.258 56.4336C355.872 56.4336 355.656 56.3372 355.607 56.1445C355.607 55.9518 355.511 55.8555 355.318 55.8555C355.126 55.8555 354.957 55.9036 354.812 56C354.668 56.0482 354.523 56.1204 354.379 56.2168C354.138 56.1204 353.849 56.0482 353.512 56C353.223 56 353.006 55.9036 352.861 55.7109C352.524 55.9518 352.187 56.0723 351.85 56.0723C351.464 56.0723 351.079 55.9518 350.693 55.7109C350.404 55.8073 350.115 55.8555 349.826 55.8555C349.682 55.8555 349.513 55.8314 349.32 55.7832C349.128 55.735 348.983 55.6628 348.887 55.5664C348.839 55.3737 348.814 55.181 348.814 54.9883C348.814 54.7956 348.814 54.5788 348.814 54.3379C348.814 53.8561 348.766 53.4948 348.67 53.2539C349.537 50.7969 350.38 48.3158 351.199 45.8105C352.018 43.2572 352.837 40.6797 353.656 38.0781C354.09 36.8737 354.499 35.6934 354.885 34.5371C355.318 33.3809 355.728 32.2005 356.113 30.9961C356.306 30.3216 356.475 29.6953 356.619 29.1172C356.764 28.4909 356.956 27.8887 357.197 27.3105C357.583 26.0579 357.968 24.8053 358.354 23.5527C358.787 22.252 359.173 20.9753 359.51 19.7227C359.702 19.5781 359.823 19.4095 359.871 19.2168C359.919 19.0241 359.992 18.8073 360.088 18.5664L360.016 17.627C360.353 17.1452 360.57 16.7357 360.666 16.3984C360.811 16.013 360.907 15.6276 360.955 15.2422C361.196 14.6641 361.413 14.0378 361.605 13.3633C361.798 12.6888 361.943 12.0625 362.039 11.4844C362.135 10.7135 362.184 9.84635 362.184 8.88281C362.232 7.87109 362.376 7.02799 362.617 6.35352C362.714 6.16081 362.786 6.04036 362.834 5.99219C362.93 5.89583 362.979 5.72721 362.979 5.48633C363.075 5.38997 363.171 5.29362 363.268 5.19727C363.412 5.05273 363.508 4.9082 363.557 4.76367C363.798 4.37826 363.87 4.04102 363.773 3.75195C363.725 3.46289 363.701 3.14974 363.701 2.8125C364.135 2.57161 364.327 2.35482 364.279 2.16211C364.231 1.9694 364.207 1.77669 364.207 1.58398C364.207 1.3431 364.352 1.1263 364.641 0.933594C364.978 0.692708 365.195 0.451823 365.291 0.210938C365.58 0.259115 365.869 0.307292 366.158 0.355469C366.447 0.355469 366.736 0.33138 367.025 0.283203C367.363 0.909505 367.772 1.22266 368.254 1.22266L368.398 1.29492ZM414.865 2.08984C415.636 1.99349 416.214 2.06576 416.6 2.30664C417.033 2.49935 417.467 2.61979 417.9 2.66797C418.141 2.71615 418.382 2.74023 418.623 2.74023C418.912 2.69206 419.201 2.66797 419.49 2.66797C420.117 2.66797 420.598 2.74023 420.936 2.88477C421.321 3.0293 421.706 3.34245 422.092 3.82422C422.188 3.92057 422.309 4.0651 422.453 4.25781C422.646 4.40234 422.742 4.54688 422.742 4.69141C422.742 5.07682 422.646 5.41406 422.453 5.70312C422.26 5.99219 422.164 6.40169 422.164 6.93164C422.164 7.75065 422.26 8.56966 422.453 9.38867C422.646 10.1595 422.766 10.9544 422.814 11.7734C423.055 14.7604 423.176 17.7715 423.176 20.8066C423.224 23.7936 423.248 26.7565 423.248 29.6953C423.248 30.0807 423.224 30.4421 423.176 30.7793C423.176 31.0684 423.079 31.3333 422.887 31.5742V32.5137C422.839 33.7663 422.863 35.043 422.959 36.3438C423.055 37.5964 423.104 38.849 423.104 40.1016C423.104 41.2096 423.031 42.3177 422.887 43.4258C422.79 44.5339 422.742 45.666 422.742 46.8223C422.742 47.8822 422.814 48.918 422.959 49.9297C423.104 50.9414 423.176 51.9772 423.176 53.0371C422.935 53.4707 422.79 53.8079 422.742 54.0488C422.694 54.2897 422.598 54.5065 422.453 54.6992C422.309 54.7956 422.14 54.8197 421.947 54.7715C421.803 54.7233 421.682 54.7715 421.586 54.916C421.345 55.2051 421.176 55.5423 421.08 55.9277C420.984 56.3132 420.743 56.6263 420.357 56.8672C420.261 57.5417 419.996 58.0475 419.562 58.3848C419.177 58.7702 418.888 59.252 418.695 59.8301C418.117 59.8783 417.708 59.8542 417.467 59.7578C417.274 59.6615 417.057 59.5651 416.816 59.4688C416.768 58.6497 416.768 58.0475 416.816 57.6621C416.913 57.3249 416.961 56.9635 416.961 56.5781C416.961 56.0964 416.84 55.735 416.6 55.4941C416.359 55.2533 416.19 54.9401 416.094 54.5547C415.564 54.2174 415.202 54.0007 415.01 53.9043C414.817 53.7598 414.648 53.5911 414.504 53.3984C414.215 53.013 413.974 52.6035 413.781 52.1699C413.589 51.7363 413.372 51.3268 413.131 50.9414C412.456 49.8333 411.758 48.7012 411.035 47.5449C410.361 46.3887 409.614 45.2565 408.795 44.1484C408.65 43.9076 408.482 43.6908 408.289 43.498C408.096 43.3053 407.928 43.0885 407.783 42.8477C406.964 41.5469 406.193 40.222 405.471 38.873C404.748 37.5241 403.905 36.2474 402.941 35.043C402.556 34.5612 402.267 34.0312 402.074 33.4531C401.882 32.8268 401.592 32.2969 401.207 31.8633C401.159 32.1042 401.135 32.3691 401.135 32.6582C401.135 32.9473 401.135 33.2122 401.135 33.4531C401.135 35.0911 401.159 36.7292 401.207 38.3672C401.303 39.957 401.352 41.571 401.352 43.209C401.352 43.5462 401.303 43.8594 401.207 44.1484C401.159 44.3893 401.135 44.6784 401.135 45.0156C401.135 45.4974 401.159 45.9551 401.207 46.3887C401.255 46.8223 401.279 47.2559 401.279 47.6895C401.279 48.2194 401.255 48.7253 401.207 49.207C401.207 49.6888 401.183 50.1706 401.135 50.6523C401.038 51.2786 400.918 51.8809 400.773 52.459C400.629 52.9889 400.557 53.543 400.557 54.1211C400.557 54.4583 400.581 54.7715 400.629 55.0605C400.725 55.3496 400.773 55.6146 400.773 55.8555C400.436 56.3854 400.003 56.6504 399.473 56.6504C398.991 56.6504 398.581 56.8431 398.244 57.2285C397.955 57.1803 397.714 57.2044 397.521 57.3008C397.377 57.3971 397.232 57.4453 397.088 57.4453C396.895 57.4453 396.727 57.4212 396.582 57.373C396.486 57.3249 396.365 57.3008 396.221 57.3008C395.98 57.3008 395.739 57.4212 395.498 57.6621C395.257 57.903 395.016 58.0234 394.775 58.0234C394.631 58.0234 394.366 57.9271 393.98 57.7344C393.643 57.5417 393.258 57.3008 392.824 57.0117C392.439 56.7708 392.077 56.5059 391.74 56.2168C391.403 55.9759 391.234 55.7832 391.234 55.6387C391.186 55.3978 391.162 55.0605 391.162 54.627C391.162 54.0488 391.186 53.4948 391.234 52.9648C391.331 52.3867 391.427 51.8086 391.523 51.2305C391.668 49.5924 391.74 47.9785 391.74 46.3887C391.74 44.7507 391.74 43.1126 391.74 41.4746C391.74 40.8001 391.74 40.1257 391.74 39.4512C391.788 38.7767 391.812 38.1022 391.812 37.4277C391.812 35.8379 391.74 34.248 391.596 32.6582C391.499 31.0202 391.451 29.4062 391.451 27.8164C391.451 26.7083 391.499 25.6243 391.596 24.5645C391.692 23.4564 391.74 22.3724 391.74 21.3125C391.74 20.4935 391.716 19.6986 391.668 18.9277C391.62 18.1569 391.596 17.362 391.596 16.543C391.548 16.013 391.548 15.459 391.596 14.8809C391.644 14.2546 391.668 13.6764 391.668 13.1465C391.668 12.5202 391.572 11.9421 391.379 11.4121C391.234 10.834 391.162 10.304 391.162 9.82227C391.162 9.5332 391.21 9.26823 391.307 9.02734C391.451 8.73828 391.523 8.44922 391.523 8.16016C391.523 7.77474 391.451 7.38932 391.307 7.00391C391.21 6.61849 391.162 6.23307 391.162 5.84766C391.162 5.46224 391.21 5.10091 391.307 4.76367C391.403 4.42643 391.451 4.0651 391.451 3.67969C392.126 3.34245 392.728 3.17383 393.258 3.17383C393.788 3.17383 394.173 3.36654 394.414 3.75195C394.414 4.61914 394.462 5.29362 394.559 5.77539C394.655 6.20898 394.727 6.66667 394.775 7.14844C394.775 7.4375 394.751 7.77474 394.703 8.16016C394.703 8.54557 394.727 8.93099 394.775 9.31641C394.824 9.65365 394.92 9.94271 395.064 10.1836C395.257 10.4245 395.57 10.5449 396.004 10.5449C396.1 10.7858 396.221 11.0026 396.365 11.1953C396.51 11.388 396.606 11.6289 396.654 11.918C396.943 11.7253 397.112 11.4603 397.16 11.123C397.208 10.7858 397.208 10.4727 397.16 10.1836C397.401 10.2799 397.618 10.3281 397.811 10.3281C398.003 10.2799 398.196 10.304 398.389 10.4004C398.485 11.0749 398.605 11.6771 398.75 12.207C398.895 12.6888 398.943 13.2669 398.895 13.9414C399.858 14.6641 400.677 15.6999 401.352 17.0488C402.074 18.3496 402.749 19.5299 403.375 20.5898C403.712 21.1198 404.098 21.6257 404.531 22.1074C405.013 22.541 405.374 23.071 405.615 23.6973C406.001 23.9382 406.314 24.2513 406.555 24.6367C406.796 25.0221 407.012 25.4076 407.205 25.793C408.169 27.4792 409.229 29.1172 410.385 30.707C411.541 32.2969 412.745 33.8626 413.998 35.4043C414.046 35.0671 414.07 34.7539 414.07 34.4648C414.07 34.1276 414.07 33.7904 414.07 33.4531L413.998 26.9492C413.998 26.5638 413.974 26.2025 413.926 25.8652C413.926 25.528 413.902 25.1667 413.854 24.7812C413.757 23.5286 413.733 22.3001 413.781 21.0957C413.829 19.8913 413.829 18.6628 413.781 17.4102C413.685 16.1094 413.613 14.7845 413.564 13.4355C413.564 12.0866 413.516 10.7376 413.42 9.38867C413.372 8.56966 413.324 7.75065 413.275 6.93164C413.227 6.11263 413.203 5.29362 413.203 4.47461C413.203 3.46289 413.299 2.54753 413.492 1.72852C413.589 1.63216 413.685 1.5599 413.781 1.51172C413.926 1.41536 414.094 1.36719 414.287 1.36719C414.576 1.36719 414.769 1.60807 414.865 2.08984ZM432.354 56.8672C432.161 56.6745 432.064 56.4095 432.064 56.0723C432.064 55.8314 432.064 55.6387 432.064 55.4941C432.113 55.3014 432.161 55.0846 432.209 54.8438C432.45 53.7357 432.57 52.6276 432.57 51.5195C432.57 50.3633 432.618 49.2311 432.715 48.123C432.763 47.4486 432.787 46.7741 432.787 46.0996C432.835 45.4251 432.859 44.7507 432.859 44.0762C432.859 40.0775 432.739 36.1029 432.498 32.1523C432.257 28.1536 432.137 24.1309 432.137 20.084C432.137 17.2897 432.185 14.4954 432.281 11.7012C432.378 8.85872 432.45 6.01628 432.498 3.17383C432.932 2.93294 433.462 2.83659 434.088 2.88477C434.714 2.93294 435.22 2.71615 435.605 2.23438C435.846 2.1862 436.087 2.1862 436.328 2.23438C436.569 2.23438 436.81 2.23438 437.051 2.23438C437.581 2.23438 438.087 2.06576 438.568 1.72852C439.05 1.39128 439.58 1.10221 440.158 0.861328C440.447 0.957682 440.64 1.00586 440.736 1.00586C440.881 0.957682 441.025 0.933594 441.17 0.933594C441.314 0.933594 441.628 1.10221 442.109 1.43945C442.591 1.77669 443.121 2.16211 443.699 2.5957C444.277 3.0293 444.807 3.4388 445.289 3.82422C445.819 4.20964 446.156 4.45052 446.301 4.54688C447.505 5.46224 448.565 6.47396 449.48 7.58203C450.444 8.64193 451.383 9.72591 452.299 10.834C453.166 11.9421 454.105 13.0742 455.117 14.2305C456.129 15.3385 457.117 16.3743 458.08 17.3379C458.417 17.7233 458.755 18.0605 459.092 18.3496C459.477 18.6387 459.839 18.9759 460.176 19.3613C460.32 19.554 460.441 19.7708 460.537 20.0117C460.682 20.2044 460.826 20.4212 460.971 20.6621C461.26 20.9993 461.597 21.2884 461.982 21.5293C462.368 21.7702 462.729 22.0592 463.066 22.3965C463.307 22.5892 463.669 22.9746 464.15 23.5527C464.632 24.1309 464.873 24.5645 464.873 24.8535C464.873 25.0462 464.825 25.2148 464.729 25.3594C464.632 25.5039 464.536 25.6725 464.439 25.8652C464.391 26.0098 464.367 26.2266 464.367 26.5156C464.367 26.8047 464.343 26.9974 464.295 27.0938C463.813 27.4792 463.548 27.7201 463.5 27.8164C463.452 27.9128 463.38 28.0091 463.283 28.1055C463.139 28.2982 462.946 28.4668 462.705 28.6113C462.512 28.7077 462.368 28.8763 462.271 29.1172C462.175 29.2617 462.127 29.4062 462.127 29.5508C462.175 29.6953 462.151 29.8639 462.055 30.0566C461.814 30.5866 461.428 31.0924 460.898 31.5742C460.368 32.056 459.911 32.5859 459.525 33.1641C458.995 34.0312 458.465 34.8984 457.936 35.7656C457.406 36.6328 456.803 37.4759 456.129 38.2949C455.84 38.6803 455.527 39.0658 455.189 39.4512C454.9 39.7884 454.611 40.1497 454.322 40.5352C454.081 40.8242 453.865 41.1374 453.672 41.4746C453.479 41.7637 453.262 42.1009 453.021 42.4863C452.492 43.1608 451.986 43.8353 451.504 44.5098C451.022 45.1361 450.516 45.7865 449.986 46.4609C449.408 47.2799 448.782 48.099 448.107 48.918C447.433 49.6888 446.831 50.4837 446.301 51.3027C445.771 52.1699 445.217 52.9648 444.639 53.6875C444.061 54.4102 443.434 55.1087 442.76 55.7832C442.567 55.9277 442.326 56.1445 442.037 56.4336C441.748 56.7227 441.459 56.8672 441.17 56.8672C440.977 56.8672 440.809 56.7949 440.664 56.6504C440.568 56.5059 440.399 56.4336 440.158 56.4336C440.11 56.4336 439.965 56.4577 439.725 56.5059C439.484 56.554 439.195 56.6022 438.857 56.6504L437.557 56.7949C436.786 57.1803 436.232 57.349 435.895 57.3008C435.557 57.3008 435.22 57.3249 434.883 57.373C434.69 57.4212 434.521 57.4935 434.377 57.5898C434.281 57.6862 434.16 57.7344 434.016 57.7344C433.678 57.7344 433.413 57.5658 433.221 57.2285C433.028 56.9395 432.739 56.819 432.354 56.8672ZM454.033 25.6484C454.033 25.4076 453.792 25.0703 453.311 24.6367C452.877 24.2031 452.54 23.89 452.299 23.6973C451.962 23.4082 451.552 23.1432 451.07 22.9023C450.637 22.6133 450.275 22.3001 449.986 21.9629C449.745 21.6738 449.505 21.3848 449.264 21.0957C449.071 20.7585 448.854 20.4453 448.613 20.1562C447.746 19.1927 446.855 18.2292 445.939 17.2656C445.072 16.3021 444.301 15.2422 443.627 14.0859C443.193 13.7969 442.784 13.4596 442.398 13.0742C442.013 12.6888 441.555 12.3757 441.025 12.1348C440.929 12.4238 440.881 12.737 440.881 13.0742C440.929 13.3633 440.953 13.6523 440.953 13.9414C440.953 15.0495 440.905 16.1335 440.809 17.1934C440.712 18.2533 440.664 19.3132 440.664 20.373C440.664 22.9746 440.712 25.5521 440.809 28.1055C440.953 30.6107 441.025 33.14 441.025 35.6934C441.025 36.6569 441.025 37.6204 441.025 38.584C441.074 39.5475 441.17 40.5111 441.314 41.4746C441.218 41.7637 441.17 42.0286 441.17 42.2695C441.17 42.5104 441.218 42.8236 441.314 43.209C441.7 42.9681 442.013 42.679 442.254 42.3418C442.543 41.9564 442.808 41.5951 443.049 41.2578C443.868 40.1979 444.663 39.138 445.434 38.0781C446.253 36.9701 447.072 35.862 447.891 34.7539C448.421 34.0312 448.951 33.3327 449.48 32.6582C450.059 31.9355 450.613 31.1888 451.143 30.418C451.287 30.2253 451.504 29.888 451.793 29.4062C452.13 28.9245 452.443 28.4427 452.732 27.9609C453.07 27.431 453.359 26.9492 453.6 26.5156C453.889 26.082 454.033 25.793 454.033 25.6484Z" fill="#351176"/>
</svg>
