<svg width="31" height="32" viewBox="0 0 31 32" fill="none" xmlns="http://www.w3.org/2000/svg">
<g clip-path="url(#clip0)">
<path d="M30.9997 16.2343C30.9997 15.1556 30.9125 14.071 30.7266 13.0098H15.8105V19.1206H24.3523C23.9978 21.0915 22.8589 22.835 21.1912 23.9429V27.908H26.2872C29.2797 25.1441 30.9997 21.0624 30.9997 16.2343Z" fill="#4285F4"/>
<path d="M15.8113 31.7383C20.0763 31.7383 23.6731 30.3331 26.2937 27.9074L21.1978 23.9423C19.78 24.9102 17.9496 25.4584 15.8171 25.4584C11.6915 25.4584 8.19346 22.6653 6.93836 18.9102H1.67969V22.9977C4.36422 28.3564 9.83208 31.7383 15.8113 31.7383Z" fill="#34A853"/>
<path d="M6.93212 18.9095C6.2697 16.9386 6.2697 14.8045 6.93212 12.8336V8.74609H1.67926C-0.563661 13.2301 -0.563661 18.513 1.67926 22.997L6.93212 18.9095Z" fill="#FBBC04"/>
<path d="M15.8113 6.2791C18.0658 6.24411 20.2448 7.09544 21.8776 8.65814L26.3925 4.12746C23.5337 1.43354 19.7393 -0.0475317 15.8113 -0.000883728C9.83208 -0.000883728 4.36422 3.38109 1.67969 8.74561L6.93254 12.8331C8.18184 9.07214 11.6857 6.2791 15.8113 6.2791Z" fill="#EA4335"/>
</g>
<defs>
<clipPath id="clip0">
<rect width="31" height="31.7381" fill="white"/>
</clipPath>
</defs>
</svg>
